<svg width="250" height="250" viewBox="0 0 250 250" fill="none" xmlns="http://www.w3.org/2000/svg">
<rect width="250" height="250" fill="#202020"/>
<path d="M149.513 153.299C165.361 142.699 176.758 116.694 162.495 91.6673L124.465 39C109.54 53.1832 103.785 64.9279 105.414 81.0769C106.49 91.7463 112.002 101.334 118.278 110.029L149.513 153.299Z" fill="url(#paint0_linear_2_4)"/>
<path d="M123.366 213.811C139.215 203.211 150.612 177.205 136.348 152.179L98.3178 99.5114C83.3926 113.695 77.6382 125.439 79.2672 141.588C80.3435 152.258 85.8552 161.846 92.1316 170.541L123.366 213.811Z" fill="url(#paint1_linear_2_4)"/>
<defs>
<linearGradient id="paint0_linear_2_4" x1="137.073" y1="39" x2="137.073" y2="153.299" gradientUnits="userSpaceOnUse">
<stop stop-color="#FF96DD"/>
<stop offset="1" stop-color="#FBB5E4"/>
</linearGradient>
<linearGradient id="paint1_linear_2_4" x1="110.927" y1="99.5114" x2="110.927" y2="213.811" gradientUnits="userSpaceOnUse">
<stop stop-color="#E3BFFF"/>
<stop offset="1" stop-color="#CC8DFD"/>
</linearGradient>
</defs>
</svg>
