<svg width="190" height="190" viewBox="0 0 190 190" fill="none" xmlns="http://www.w3.org/2000/svg">
<path d="M149.152 103.754C150.723 105.318 150.723 107.86 149.152 109.424L81.0803 177.191C79.5196 178.744 76.9968 178.744 75.4362 177.191L47.1702 149.052C45.5996 147.488 45.5996 144.946 47.1702 143.382L115.242 75.6148C116.803 74.0611 119.326 74.0612 120.886 75.6148L149.152 103.754Z" fill="url(#paint0_linear_3_25)"/>
<path d="M140.668 38.949C142.239 40.5125 142.239 43.055 140.668 44.6185L72.7576 112.226C71.197 113.779 68.6741 113.779 67.1135 112.226L38.8475 84.086C37.2769 82.5225 37.2769 79.98 38.8475 78.4165L72.7902 44.6256L106.758 10.8095C108.319 9.25583 110.842 9.25583 112.402 10.8095L126.548 24.8919L140.668 38.949Z" fill="url(#paint1_linear_3_25)"/>
<defs>
<linearGradient id="paint0_linear_3_25" x1="35.9611" y1="66.2317" x2="162.669" y2="101.626" gradientUnits="userSpaceOnUse">
<stop stop-color="#FAA7E3"/>
<stop offset="1" stop-color="#FFEAEA"/>
</linearGradient>
<linearGradient id="paint1_linear_3_25" x1="35.9611" y1="66.2317" x2="162.669" y2="101.626" gradientUnits="userSpaceOnUse">
<stop stop-color="#FAA7E3"/>
<stop offset="1" stop-color="#FFEAEA"/>
</linearGradient>
</defs>
</svg>
