<svg width="830" height="378" viewBox="0 0 830 378" fill="none" xmlns="http://www.w3.org/2000/svg">
<g filter="url(#filter0_f_701_129)">
<rect x="377" y="177" width="53.7401" height="53.1897" transform="rotate(-45 377 177)" fill="url(#paint0_linear_701_129)"/>
</g>
<path d="M433.385 198.224C445.271 190.274 453.819 170.77 443.121 152L414.599 112.5C404.687 121.919 400.168 129.904 400.111 140.018C400.05 150.741 406.053 160.36 412.329 169.055L433.385 198.224Z" fill="url(#paint1_linear_701_129)"/>
<path d="M413.775 243.608C425.661 235.658 434.209 216.154 423.511 197.384L394.988 157.884C385.077 167.302 380.558 175.287 380.501 185.401C380.44 196.124 386.442 205.744 392.719 214.439L413.775 243.608Z" fill="url(#paint2_linear_701_129)"/>
<path d="M251.14 345C250.673 345 250.277 344.86 249.95 344.58C249.623 344.253 249.46 343.833 249.46 343.32V297.75C249.46 297.237 249.623 296.817 249.95 296.49C250.277 296.163 250.673 296 251.14 296H257.51C258.023 296 258.42 296.163 258.7 296.49C259.027 296.817 259.19 297.237 259.19 297.75V315.81H279.84V297.75C279.84 297.237 280.003 296.817 280.33 296.49C280.657 296.163 281.053 296 281.52 296H287.82C288.333 296 288.753 296.163 289.08 296.49C289.407 296.817 289.57 297.237 289.57 297.75V343.32C289.57 343.787 289.407 344.183 289.08 344.51C288.753 344.837 288.333 345 287.82 345H281.52C281.053 345 280.657 344.837 280.33 344.51C280.003 344.183 279.84 343.787 279.84 343.32V324.56H259.19V343.32C259.19 343.787 259.027 344.183 258.7 344.51C258.42 344.837 258.023 345 257.51 345H251.14ZM315.084 345C314.618 345 314.221 344.837 313.894 344.51C313.568 344.183 313.404 343.787 313.404 343.32V327.5L296.884 298.24C296.838 298.147 296.791 298.03 296.744 297.89C296.698 297.75 296.674 297.61 296.674 297.47C296.674 297.05 296.814 296.7 297.094 296.42C297.374 296.14 297.701 296 298.074 296H304.304C304.864 296 305.308 296.14 305.634 296.42C306.008 296.7 306.264 297.003 306.404 297.33L318.304 317.7L330.134 297.33C330.321 297.003 330.578 296.7 330.904 296.42C331.278 296.14 331.744 296 332.304 296H338.464C338.884 296 339.234 296.14 339.514 296.42C339.794 296.7 339.934 297.05 339.934 297.47C339.934 297.61 339.911 297.75 339.864 297.89C339.864 298.03 339.818 298.147 339.724 298.24L323.204 327.5V343.32C323.204 343.787 323.041 344.183 322.714 344.51C322.388 344.837 321.968 345 321.454 345H315.084ZM348.689 345C348.222 345 347.825 344.837 347.499 344.51C347.172 344.183 347.009 343.787 347.009 343.32V297.75C347.009 297.237 347.172 296.817 347.499 296.49C347.825 296.163 348.222 296 348.689 296H368.989C372.769 296 375.849 296.583 378.229 297.75C380.609 298.87 382.359 300.433 383.479 302.44C384.645 304.447 385.229 306.78 385.229 309.44C385.229 311.213 384.902 312.777 384.249 314.13C383.642 315.437 382.872 316.51 381.939 317.35C381.052 318.19 380.165 318.843 379.279 319.31C381.099 320.15 382.709 321.55 384.109 323.51C385.509 325.47 386.209 327.803 386.209 330.51C386.209 333.31 385.579 335.807 384.319 338C383.059 340.193 381.192 341.92 378.719 343.18C376.245 344.393 373.189 345 369.549 345H348.689ZM356.739 337.58H368.429C370.949 337.58 372.862 336.903 374.169 335.55C375.475 334.15 376.129 332.47 376.129 330.51C376.129 328.457 375.452 326.753 374.099 325.4C372.792 324.047 370.902 323.37 368.429 323.37H356.739V337.58ZM356.739 316.09H367.729C370.202 316.09 372.045 315.507 373.259 314.34C374.519 313.127 375.149 311.563 375.149 309.65C375.149 307.69 374.519 306.173 373.259 305.1C372.045 303.98 370.202 303.42 367.729 303.42H356.739V316.09ZM396.677 345C396.21 345 395.814 344.837 395.487 344.51C395.16 344.183 394.997 343.787 394.997 343.32V297.75C394.997 297.237 395.16 296.817 395.487 296.49C395.814 296.163 396.21 296 396.677 296H414.807C420.454 296 424.91 297.307 428.177 299.92C431.444 302.533 433.077 306.337 433.077 311.33C433.077 314.783 432.214 317.653 430.487 319.94C428.807 322.227 426.544 323.883 423.697 324.91L433.917 342.76C434.057 343.04 434.127 343.297 434.127 343.53C434.127 343.95 433.964 344.3 433.637 344.58C433.357 344.86 433.03 345 432.657 345H426.287C425.494 345 424.887 344.79 424.467 344.37C424.047 343.95 423.72 343.53 423.487 343.11L414.457 326.52H404.727V343.32C404.727 343.787 404.564 344.183 404.237 344.51C403.957 344.837 403.56 345 403.047 345H396.677ZM404.727 318.61H414.597C417.444 318.61 419.567 317.98 420.967 316.72C422.367 315.413 423.067 313.593 423.067 311.26C423.067 308.927 422.367 307.107 420.967 305.8C419.614 304.447 417.49 303.77 414.597 303.77H404.727V318.61ZM443.777 345C443.31 345 442.913 344.837 442.587 344.51C442.26 344.183 442.097 343.787 442.097 343.32V297.68C442.097 297.213 442.26 296.817 442.587 296.49C442.913 296.163 443.31 296 443.777 296H450.357C450.87 296 451.267 296.163 451.547 296.49C451.873 296.817 452.037 297.213 452.037 297.68V343.32C452.037 343.787 451.873 344.183 451.547 344.51C451.267 344.837 450.87 345 450.357 345H443.777ZM464.695 345C464.228 345 463.831 344.837 463.505 344.51C463.178 344.183 463.015 343.787 463.015 343.32V297.75C463.015 297.237 463.178 296.817 463.505 296.49C463.831 296.163 464.228 296 464.695 296H481.775C486.488 296 490.361 296.723 493.395 298.17C496.475 299.617 498.785 301.763 500.325 304.61C501.911 307.457 502.728 310.933 502.775 315.04C502.868 317.093 502.915 318.913 502.915 320.5C502.915 322.087 502.868 323.883 502.775 325.89C502.681 330.23 501.888 333.823 500.395 336.67C498.901 339.47 496.638 341.57 493.605 342.97C490.618 344.323 486.791 345 482.125 345H464.695ZM472.745 336.95H481.775C484.388 336.95 486.511 336.577 488.145 335.83C489.778 335.083 490.968 333.893 491.715 332.26C492.508 330.58 492.928 328.387 492.975 325.68C493.021 324.28 493.045 323.067 493.045 322.04C493.091 320.967 493.091 319.917 493.045 318.89C493.045 317.817 493.021 316.603 492.975 315.25C492.881 311.423 491.925 308.6 490.105 306.78C488.285 304.96 485.391 304.05 481.425 304.05H472.745V336.95ZM513.913 345C513.447 345 513.05 344.837 512.723 344.51C512.397 344.183 512.233 343.787 512.233 343.32V297.68C512.233 297.213 512.397 296.817 512.723 296.49C513.05 296.163 513.447 296 513.913 296H520.423C520.89 296 521.287 296.163 521.613 296.49C521.94 296.817 522.103 297.213 522.103 297.68V336.67H544.293C544.807 336.67 545.227 336.833 545.553 337.16C545.88 337.487 546.043 337.907 546.043 338.42V343.32C546.043 343.787 545.88 344.183 545.553 344.51C545.227 344.837 544.807 345 544.293 345H513.913ZM560.153 345C559.686 345 559.289 344.837 558.963 344.51C558.636 344.183 558.473 343.787 558.473 343.32V327.5L541.953 298.24C541.906 298.147 541.859 298.03 541.813 297.89C541.766 297.75 541.743 297.61 541.743 297.47C541.743 297.05 541.883 296.7 542.163 296.42C542.443 296.14 542.769 296 543.143 296H549.373C549.933 296 550.376 296.14 550.703 296.42C551.076 296.7 551.333 297.003 551.473 297.33L563.373 317.7L575.203 297.33C575.389 297.003 575.646 296.7 575.973 296.42C576.346 296.14 576.813 296 577.373 296H583.533C583.953 296 584.303 296.14 584.583 296.42C584.863 296.7 585.003 297.05 585.003 297.47C585.003 297.61 584.979 297.75 584.933 297.89C584.933 298.03 584.886 298.147 584.793 298.24L568.273 327.5V343.32C568.273 343.787 568.109 344.183 567.783 344.51C567.456 344.837 567.036 345 566.523 345H560.153Z" fill="url(#paint3_linear_701_129)"/>
<defs>
<filter id="filter0_f_701_129" x="277" y="39" width="275.611" height="275.611" filterUnits="userSpaceOnUse" color-interpolation-filters="sRGB">
<feFlood flood-opacity="0" result="BackgroundImageFix"/>
<feBlend mode="normal" in="SourceGraphic" in2="BackgroundImageFix" result="shape"/>
<feGaussianBlur stdDeviation="50" result="effect1_foregroundBlur_701_129"/>
</filter>
<linearGradient id="paint0_linear_701_129" x1="403.87" y1="177" x2="403.87" y2="230.19" gradientUnits="userSpaceOnUse">
<stop stop-color="#E3BFFF" stop-opacity="0.99"/>
<stop offset="1" stop-color="#CC8DFD"/>
</linearGradient>
<linearGradient id="paint1_linear_701_129" x1="424.055" y1="112.5" x2="424.055" y2="198.224" gradientUnits="userSpaceOnUse">
<stop stop-color="#FF96DD"/>
<stop offset="1" stop-color="#FBB5E4"/>
</linearGradient>
<linearGradient id="paint2_linear_701_129" x1="404.445" y1="157.884" x2="404.445" y2="243.608" gradientUnits="userSpaceOnUse">
<stop stop-color="#E3BFFF"/>
<stop offset="1" stop-color="#CC8DFD"/>
</linearGradient>
<linearGradient id="paint3_linear_701_129" x1="168.55" y1="286.25" x2="600.178" y2="361.187" gradientUnits="userSpaceOnUse">
<stop stop-color="#FA97DD"/>
<stop offset="0.3125" stop-color="#FBB3E3"/>
<stop offset="0.713542" stop-color="#E2BCFF"/>
<stop offset="1" stop-color="#CC8EFC"/>
</linearGradient>
</defs>
</svg>
