<svg width="2566" height="537" viewBox="0 0 2566 537" fill="none" xmlns="http://www.w3.org/2000/svg">
<path d="M848.126 298C846.893 298 845.844 297.63 844.981 296.89C844.118 296.027 843.686 294.917 843.686 293.56V173.125C843.686 171.768 844.118 170.658 844.981 169.795C845.844 168.932 846.893 168.5 848.126 168.5H864.961C866.318 168.5 867.366 168.932 868.106 169.795C868.969 170.658 869.401 171.768 869.401 173.125V220.855H923.976V173.125C923.976 171.768 924.408 170.658 925.271 169.795C926.134 168.932 927.183 168.5 928.416 168.5H945.066C946.423 168.5 947.533 168.932 948.396 169.795C949.259 170.658 949.691 171.768 949.691 173.125V293.56C949.691 294.793 949.259 295.842 948.396 296.705C947.533 297.568 946.423 298 945.066 298H928.416C927.183 298 926.134 297.568 925.271 296.705C924.408 295.842 923.976 294.793 923.976 293.56V243.98H869.401V293.56C869.401 294.793 868.969 295.842 868.106 296.705C867.366 297.568 866.318 298 864.961 298H848.126ZM1017.12 298C1015.89 298 1014.84 297.568 1013.98 296.705C1013.11 295.842 1012.68 294.793 1012.68 293.56V251.75L969.022 174.42C968.899 174.173 968.775 173.865 968.652 173.495C968.529 173.125 968.467 172.755 968.467 172.385C968.467 171.275 968.837 170.35 969.577 169.61C970.317 168.87 971.18 168.5 972.167 168.5H988.632C990.112 168.5 991.284 168.87 992.147 169.61C993.134 170.35 993.812 171.152 994.182 172.015L1025.63 225.85L1056.9 172.015C1057.39 171.152 1058.07 170.35 1058.93 169.61C1059.92 168.87 1061.15 168.5 1062.63 168.5H1078.91C1080.02 168.5 1080.95 168.87 1081.69 169.61C1082.43 170.35 1082.8 171.275 1082.8 172.385C1082.8 172.755 1082.74 173.125 1082.61 173.495C1082.61 173.865 1082.49 174.173 1082.24 174.42L1038.58 251.75V293.56C1038.58 294.793 1038.15 295.842 1037.29 296.705C1036.42 297.568 1035.31 298 1033.96 298H1017.12ZM1105.93 298C1104.7 298 1103.65 297.568 1102.79 296.705C1101.93 295.842 1101.49 294.793 1101.49 293.56V173.125C1101.49 171.768 1101.93 170.658 1102.79 169.795C1103.65 168.932 1104.7 168.5 1105.93 168.5H1159.58C1169.57 168.5 1177.71 170.042 1184 173.125C1190.29 176.085 1194.92 180.217 1197.88 185.52C1200.96 190.823 1202.5 196.99 1202.5 204.02C1202.5 208.707 1201.64 212.838 1199.91 216.415C1198.31 219.868 1196.28 222.705 1193.81 224.925C1191.47 227.145 1189.12 228.872 1186.78 230.105C1191.59 232.325 1195.84 236.025 1199.54 241.205C1203.24 246.385 1205.09 252.552 1205.09 259.705C1205.09 267.105 1203.43 273.703 1200.1 279.5C1196.77 285.297 1191.84 289.86 1185.3 293.19C1178.76 296.397 1170.68 298 1161.06 298H1105.93ZM1127.21 278.39H1158.1C1164.76 278.39 1169.82 276.602 1173.27 273.025C1176.73 269.325 1178.45 264.885 1178.45 259.705C1178.45 254.278 1176.67 249.777 1173.09 246.2C1169.64 242.623 1164.64 240.835 1158.1 240.835H1127.21V278.39ZM1127.21 221.595H1156.25C1162.79 221.595 1167.66 220.053 1170.87 216.97C1174.2 213.763 1175.86 209.632 1175.86 204.575C1175.86 199.395 1174.2 195.387 1170.87 192.55C1167.66 189.59 1162.79 188.11 1156.25 188.11H1127.21V221.595ZM1232.76 298C1231.53 298 1230.48 297.568 1229.61 296.705C1228.75 295.842 1228.32 294.793 1228.32 293.56V173.125C1228.32 171.768 1228.75 170.658 1229.61 169.795C1230.48 168.932 1231.53 168.5 1232.76 168.5H1280.67C1295.6 168.5 1307.38 171.953 1316.01 178.86C1324.64 185.767 1328.96 195.818 1328.96 209.015C1328.96 218.142 1326.68 225.727 1322.11 231.77C1317.67 237.813 1311.69 242.192 1304.17 244.905L1331.18 292.08C1331.55 292.82 1331.73 293.498 1331.73 294.115C1331.73 295.225 1331.3 296.15 1330.44 296.89C1329.7 297.63 1328.84 298 1327.85 298H1311.01C1308.92 298 1307.31 297.445 1306.2 296.335C1305.09 295.225 1304.23 294.115 1303.61 293.005L1279.75 249.16H1254.03V293.56C1254.03 294.793 1253.6 295.842 1252.74 296.705C1252 297.568 1250.95 298 1249.59 298H1232.76ZM1254.03 228.255H1280.12C1287.64 228.255 1293.25 226.59 1296.95 223.26C1300.65 219.807 1302.5 214.997 1302.5 208.83C1302.5 202.663 1300.65 197.853 1296.95 194.4C1293.38 190.823 1287.77 189.035 1280.12 189.035H1254.03V228.255ZM1357.24 298C1356 298 1354.96 297.568 1354.09 296.705C1353.23 295.842 1352.8 294.793 1352.8 293.56V172.94C1352.8 171.707 1353.23 170.658 1354.09 169.795C1354.96 168.932 1356 168.5 1357.24 168.5H1374.63C1375.98 168.5 1377.03 168.932 1377.77 169.795C1378.64 170.658 1379.07 171.707 1379.07 172.94V293.56C1379.07 294.793 1378.64 295.842 1377.77 296.705C1377.03 297.568 1375.98 298 1374.63 298H1357.24ZM1412.52 298C1411.29 298 1410.24 297.568 1409.38 296.705C1408.51 295.842 1408.08 294.793 1408.08 293.56V173.125C1408.08 171.768 1408.51 170.658 1409.38 169.795C1410.24 168.932 1411.29 168.5 1412.52 168.5H1457.66C1470.12 168.5 1480.35 170.412 1488.37 174.235C1496.51 178.058 1502.62 183.732 1506.69 191.255C1510.88 198.778 1513.04 207.967 1513.16 218.82C1513.41 224.247 1513.53 229.057 1513.53 233.25C1513.53 237.443 1513.41 242.192 1513.16 247.495C1512.91 258.965 1510.82 268.462 1506.87 275.985C1502.92 283.385 1496.94 288.935 1488.93 292.635C1481.03 296.212 1470.92 298 1458.59 298H1412.52ZM1433.8 276.725H1457.66C1464.57 276.725 1470.18 275.738 1474.5 273.765C1478.81 271.792 1481.96 268.647 1483.93 264.33C1486.03 259.89 1487.14 254.093 1487.26 246.94C1487.38 243.24 1487.45 240.033 1487.45 237.32C1487.57 234.483 1487.57 231.708 1487.45 228.995C1487.45 226.158 1487.38 222.952 1487.26 219.375C1487.01 209.262 1484.49 201.8 1479.68 196.99C1474.87 192.18 1467.22 189.775 1456.74 189.775H1433.8V276.725ZM1542.6 298C1541.37 298 1540.32 297.568 1539.45 296.705C1538.59 295.842 1538.16 294.793 1538.16 293.56V172.94C1538.16 171.707 1538.59 170.658 1539.45 169.795C1540.32 168.932 1541.37 168.5 1542.6 168.5H1559.8C1561.04 168.5 1562.09 168.932 1562.95 169.795C1563.81 170.658 1564.24 171.707 1564.24 172.94V275.985H1622.89C1624.25 275.985 1625.36 276.417 1626.22 277.28C1627.08 278.143 1627.51 279.253 1627.51 280.61V293.56C1627.51 294.793 1627.08 295.842 1626.22 296.705C1625.36 297.568 1624.25 298 1622.89 298H1542.6ZM1664.8 298C1663.57 298 1662.52 297.568 1661.66 296.705C1660.79 295.842 1660.36 294.793 1660.36 293.56V251.75L1616.7 174.42C1616.58 174.173 1616.46 173.865 1616.33 173.495C1616.21 173.125 1616.15 172.755 1616.15 172.385C1616.15 171.275 1616.52 170.35 1617.26 169.61C1618 168.87 1618.86 168.5 1619.85 168.5H1636.31C1637.79 168.5 1638.96 168.87 1639.83 169.61C1640.81 170.35 1641.49 171.152 1641.86 172.015L1673.31 225.85L1704.58 172.015C1705.07 171.152 1705.75 170.35 1706.61 169.61C1707.6 168.87 1708.83 168.5 1710.31 168.5H1726.59C1727.7 168.5 1728.63 168.87 1729.37 169.61C1730.11 170.35 1730.48 171.275 1730.48 172.385C1730.48 172.755 1730.42 173.125 1730.29 173.495C1730.29 173.865 1730.17 174.173 1729.92 174.42L1686.26 251.75V293.56C1686.26 294.793 1685.83 295.842 1684.97 296.705C1684.1 297.568 1682.99 298 1681.64 298H1664.8Z" fill="url(#paint0_linear_904_116)"/>
<path d="M693.957 377.714H683.507L683.45 373.324H692.938C694.505 373.324 695.873 373.06 697.044 372.531C698.215 372.003 699.121 371.247 699.763 370.266C700.424 369.265 700.754 368.076 700.754 366.697C700.754 365.187 700.461 363.96 699.876 363.016C699.31 362.053 698.432 361.354 697.242 360.92C696.072 360.467 694.58 360.24 692.768 360.24H684.725V397H679.259V355.766H692.768C694.882 355.766 696.77 355.983 698.432 356.417C700.093 356.832 701.5 357.493 702.651 358.399C703.822 359.287 704.709 360.42 705.313 361.798C705.918 363.176 706.22 364.828 706.22 366.754C706.22 368.453 705.785 369.992 704.917 371.37C704.049 372.729 702.84 373.843 701.292 374.712C699.763 375.58 697.969 376.137 695.911 376.383L693.957 377.714ZM693.702 397H681.354L684.441 392.554H693.702C695.439 392.554 696.912 392.252 698.12 391.647C699.347 391.043 700.282 390.194 700.924 389.099C701.566 387.985 701.887 386.673 701.887 385.162C701.887 383.633 701.613 382.311 701.065 381.197C700.518 380.083 699.659 379.224 698.488 378.62C697.318 378.016 695.807 377.714 693.957 377.714H686.169L686.226 373.324H696.874L698.035 374.91C700.018 375.08 701.698 375.646 703.076 376.609C704.454 377.553 705.502 378.762 706.22 380.234C706.956 381.707 707.324 383.331 707.324 385.105C707.324 387.673 706.758 389.844 705.625 391.619C704.511 393.375 702.935 394.715 700.896 395.641C698.856 396.547 696.459 397 693.702 397ZM733.351 389.92V366.357H738.618V397H733.605L733.351 389.92ZM734.342 383.463L736.522 383.406C736.522 385.445 736.305 387.333 735.871 389.07C735.456 390.788 734.776 392.28 733.832 393.545C732.888 394.81 731.651 395.801 730.122 396.519C728.593 397.217 726.733 397.566 724.543 397.566C723.051 397.566 721.683 397.349 720.437 396.915C719.209 396.481 718.152 395.811 717.265 394.904C716.377 393.998 715.688 392.818 715.197 391.364C714.725 389.91 714.489 388.164 714.489 386.125V366.357H719.729V386.182C719.729 387.56 719.88 388.702 720.182 389.608C720.503 390.496 720.927 391.204 721.456 391.732C722.004 392.242 722.608 392.601 723.269 392.809C723.948 393.016 724.647 393.12 725.364 393.12C727.592 393.12 729.357 392.695 730.66 391.846C731.963 390.977 732.897 389.816 733.464 388.362C734.049 386.89 734.342 385.257 734.342 383.463ZM752.297 366.357V397H747.029V366.357H752.297ZM746.633 358.229C746.633 357.38 746.888 356.662 747.397 356.077C747.926 355.492 748.7 355.199 749.72 355.199C750.72 355.199 751.485 355.492 752.014 356.077C752.561 356.662 752.835 357.38 752.835 358.229C752.835 359.041 752.561 359.74 752.014 360.325C751.485 360.892 750.72 361.175 749.72 361.175C748.7 361.175 747.926 360.892 747.397 360.325C746.888 359.74 746.633 359.041 746.633 358.229ZM766.4 353.5V397H761.133V353.5H766.4ZM794.126 391.053V353.5H799.394V397H794.579L794.126 391.053ZM773.509 382.019V381.424C773.509 379.083 773.792 376.959 774.358 375.052C774.944 373.126 775.765 371.474 776.822 370.096C777.898 368.717 779.173 367.66 780.646 366.924C782.137 366.169 783.799 365.791 785.63 365.791C787.556 365.791 789.236 366.131 790.671 366.811C792.125 367.471 793.352 368.444 794.353 369.728C795.372 370.993 796.174 372.522 796.76 374.315C797.345 376.109 797.751 378.139 797.978 380.404V383.01C797.77 385.257 797.364 387.277 796.76 389.07C796.174 390.864 795.372 392.393 794.353 393.658C793.352 394.923 792.125 395.896 790.671 396.575C789.217 397.236 787.518 397.566 785.573 397.566C783.78 397.566 782.137 397.179 780.646 396.405C779.173 395.631 777.898 394.546 776.822 393.148C775.765 391.751 774.944 390.109 774.358 388.221C773.792 386.314 773.509 384.246 773.509 382.019ZM778.776 381.424V382.019C778.776 383.548 778.927 384.983 779.229 386.323C779.55 387.664 780.041 388.844 780.702 389.863C781.363 390.883 782.203 391.685 783.223 392.271C784.242 392.837 785.46 393.12 786.876 393.12C788.613 393.12 790.038 392.752 791.152 392.016C792.285 391.279 793.191 390.307 793.871 389.099C794.551 387.89 795.079 386.578 795.457 385.162V378.337C795.23 377.299 794.9 376.298 794.466 375.335C794.05 374.353 793.503 373.485 792.823 372.729C792.162 371.955 791.341 371.342 790.359 370.889C789.396 370.436 788.254 370.209 786.933 370.209C785.498 370.209 784.261 370.511 783.223 371.115C782.203 371.701 781.363 372.512 780.702 373.551C780.041 374.57 779.55 375.76 779.229 377.119C778.927 378.46 778.776 379.895 778.776 381.424ZM839.778 388.872C839.778 388.117 839.608 387.418 839.269 386.776C838.948 386.116 838.277 385.521 837.258 384.992C836.257 384.445 834.747 383.973 832.727 383.576C831.027 383.217 829.489 382.793 828.11 382.302C826.751 381.811 825.59 381.216 824.627 380.518C823.683 379.819 822.956 378.998 822.446 378.054C821.937 377.11 821.682 376.005 821.682 374.74C821.682 373.532 821.946 372.39 822.475 371.313C823.022 370.237 823.787 369.284 824.769 368.453C825.769 367.622 826.968 366.971 828.365 366.499C829.762 366.027 831.32 365.791 833.038 365.791C835.493 365.791 837.588 366.225 839.325 367.094C841.062 367.962 842.393 369.123 843.318 370.577C844.243 372.012 844.706 373.607 844.706 375.363H839.467C839.467 374.514 839.212 373.692 838.702 372.899C838.211 372.088 837.484 371.417 836.521 370.889C835.577 370.36 834.416 370.096 833.038 370.096C831.584 370.096 830.404 370.322 829.498 370.775C828.611 371.21 827.959 371.767 827.544 372.446C827.147 373.126 826.949 373.843 826.949 374.599C826.949 375.165 827.044 375.675 827.232 376.128C827.44 376.562 827.799 376.968 828.309 377.346C828.818 377.704 829.536 378.044 830.461 378.365C831.386 378.686 832.566 379.007 834.001 379.328C836.512 379.895 838.579 380.574 840.203 381.367C841.827 382.16 843.035 383.132 843.828 384.284C844.621 385.436 845.018 386.833 845.018 388.476C845.018 389.816 844.734 391.043 844.168 392.157C843.62 393.271 842.818 394.234 841.761 395.046C840.722 395.839 839.476 396.462 838.022 396.915C836.588 397.349 834.973 397.566 833.18 397.566C830.48 397.566 828.195 397.085 826.326 396.122C824.457 395.159 823.041 393.913 822.078 392.384C821.115 390.854 820.634 389.24 820.634 387.541H825.901C825.977 388.976 826.392 390.118 827.147 390.968C827.903 391.799 828.828 392.393 829.923 392.752C831.018 393.092 832.104 393.262 833.18 393.262C834.615 393.262 835.813 393.073 836.776 392.695C837.758 392.318 838.504 391.799 839.014 391.138C839.523 390.477 839.778 389.722 839.778 388.872ZM864.615 397.566C862.482 397.566 860.547 397.208 858.81 396.49C857.091 395.754 855.609 394.725 854.363 393.403C853.136 392.082 852.192 390.515 851.531 388.702C850.87 386.89 850.54 384.907 850.54 382.755V381.565C850.54 379.073 850.908 376.855 851.645 374.91C852.381 372.947 853.382 371.285 854.646 369.926C855.911 368.566 857.346 367.537 858.951 366.839C860.556 366.14 862.217 365.791 863.936 365.791C866.126 365.791 868.014 366.169 869.6 366.924C871.204 367.679 872.517 368.736 873.536 370.096C874.556 371.436 875.311 373.022 875.802 374.854C876.293 376.666 876.538 378.648 876.538 380.801V383.151H853.655V378.875H871.299V378.479C871.223 377.119 870.94 375.798 870.449 374.514C869.977 373.23 869.222 372.173 868.184 371.342C867.145 370.511 865.729 370.096 863.936 370.096C862.746 370.096 861.651 370.351 860.65 370.86C859.65 371.351 858.791 372.088 858.073 373.069C857.356 374.051 856.799 375.25 856.402 376.666C856.006 378.082 855.808 379.715 855.808 381.565V382.755C855.808 384.209 856.006 385.577 856.402 386.861C856.818 388.126 857.412 389.24 858.187 390.203C858.979 391.166 859.933 391.921 861.047 392.469C862.18 393.016 863.464 393.29 864.898 393.29C866.749 393.29 868.316 392.912 869.6 392.157C870.883 391.402 872.007 390.392 872.97 389.127L876.142 391.647C875.481 392.648 874.641 393.602 873.621 394.508C872.602 395.414 871.346 396.15 869.854 396.717C868.382 397.283 866.635 397.566 864.615 397.566ZM887.895 371.172V397H882.655V366.357H887.753L887.895 371.172ZM897.467 366.188L897.438 371.059C897.004 370.964 896.589 370.908 896.192 370.889C895.815 370.851 895.381 370.832 894.89 370.832C893.681 370.832 892.615 371.021 891.689 371.398C890.764 371.776 889.981 372.305 889.339 372.984C888.697 373.664 888.187 374.476 887.81 375.42C887.451 376.345 887.215 377.365 887.102 378.479L885.629 379.328C885.629 377.478 885.808 375.741 886.167 374.117C886.545 372.493 887.12 371.059 887.895 369.812C888.669 368.548 889.65 367.566 890.84 366.867C892.048 366.15 893.483 365.791 895.145 365.791C895.522 365.791 895.956 365.838 896.447 365.933C896.938 366.008 897.278 366.093 897.467 366.188ZM912.137 392.271L920.52 366.357H925.872L914.855 397H911.344L912.137 392.271ZM905.142 366.357L913.779 392.412L914.374 397H910.862L899.761 366.357H905.142ZM943.232 397.566C941.099 397.566 939.164 397.208 937.427 396.49C935.709 395.754 934.227 394.725 932.98 393.403C931.753 392.082 930.809 390.515 930.148 388.702C929.488 386.89 929.157 384.907 929.157 382.755V381.565C929.157 379.073 929.525 376.855 930.262 374.91C930.998 372.947 931.999 371.285 933.264 369.926C934.529 368.566 935.964 367.537 937.568 366.839C939.173 366.14 940.835 365.791 942.553 365.791C944.743 365.791 946.631 366.169 948.217 366.924C949.822 367.679 951.134 368.736 952.153 370.096C953.173 371.436 953.928 373.022 954.419 374.854C954.91 376.666 955.155 378.648 955.155 380.801V383.151H932.272V378.875H949.916V378.479C949.84 377.119 949.557 375.798 949.066 374.514C948.594 373.23 947.839 372.173 946.801 371.342C945.762 370.511 944.346 370.096 942.553 370.096C941.363 370.096 940.268 370.351 939.268 370.86C938.267 371.351 937.408 372.088 936.69 373.069C935.973 374.051 935.416 375.25 935.02 376.666C934.623 378.082 934.425 379.715 934.425 381.565V382.755C934.425 384.209 934.623 385.577 935.02 386.861C935.435 388.126 936.03 389.24 936.804 390.203C937.597 391.166 938.55 391.921 939.664 392.469C940.797 393.016 942.081 393.29 943.516 393.29C945.366 393.29 946.933 392.912 948.217 392.157C949.501 391.402 950.624 390.392 951.587 389.127L954.759 391.647C954.098 392.648 953.258 393.602 952.238 394.508C951.219 395.414 949.963 396.15 948.472 396.717C946.999 397.283 945.253 397.566 943.232 397.566ZM966.512 371.172V397H961.272V366.357H966.37L966.512 371.172ZM976.084 366.188L976.056 371.059C975.621 370.964 975.206 370.908 974.81 370.889C974.432 370.851 973.998 370.832 973.507 370.832C972.299 370.832 971.232 371.021 970.307 371.398C969.382 371.776 968.598 372.305 967.956 372.984C967.314 373.664 966.804 374.476 966.427 375.42C966.068 376.345 965.832 377.365 965.719 378.479L964.246 379.328C964.246 377.478 964.425 375.741 964.784 374.117C965.162 372.493 965.738 371.059 966.512 369.812C967.286 368.548 968.268 367.566 969.457 366.867C970.665 366.15 972.1 365.791 973.762 365.791C974.139 365.791 974.574 365.838 975.064 365.933C975.555 366.008 975.895 366.093 976.084 366.188ZM991.83 377.317V381.622H978.01V377.317H991.83ZM1016.27 391.053V353.5H1021.54V397H1016.72L1016.27 391.053ZM995.653 382.019V381.424C995.653 379.083 995.937 376.959 996.503 375.052C997.088 373.126 997.91 371.474 998.967 370.096C1000.04 368.717 1001.32 367.66 1002.79 366.924C1004.28 366.169 1005.94 365.791 1007.77 365.791C1009.7 365.791 1011.38 366.131 1012.82 366.811C1014.27 367.471 1015.5 368.444 1016.5 369.728C1017.52 370.993 1018.32 372.522 1018.9 374.315C1019.49 376.109 1019.9 378.139 1020.12 380.404V383.01C1019.91 385.257 1019.51 387.277 1018.9 389.07C1018.32 390.864 1017.52 392.393 1016.5 393.658C1015.5 394.923 1014.27 395.896 1012.82 396.575C1011.36 397.236 1009.66 397.566 1007.72 397.566C1005.92 397.566 1004.28 397.179 1002.79 396.405C1001.32 395.631 1000.04 394.546 998.967 393.148C997.91 391.751 997.088 390.109 996.503 388.221C995.937 386.314 995.653 384.246 995.653 382.019ZM1000.92 381.424V382.019C1000.92 383.548 1001.07 384.983 1001.37 386.323C1001.69 387.664 1002.19 388.844 1002.85 389.863C1003.51 390.883 1004.35 391.685 1005.37 392.271C1006.39 392.837 1007.6 393.12 1009.02 393.12C1010.76 393.12 1012.18 392.752 1013.3 392.016C1014.43 391.279 1015.34 390.307 1016.02 389.099C1016.7 387.89 1017.22 386.578 1017.6 385.162V378.337C1017.38 377.299 1017.04 376.298 1016.61 375.335C1016.19 374.353 1015.65 373.485 1014.97 372.729C1014.31 371.955 1013.49 371.342 1012.5 370.889C1011.54 370.436 1010.4 370.209 1009.08 370.209C1007.64 370.209 1006.41 370.511 1005.37 371.115C1004.35 371.701 1003.51 372.512 1002.85 373.551C1002.19 374.57 1001.69 375.76 1001.37 377.119C1001.07 378.46 1000.92 379.895 1000.92 381.424ZM1034.93 371.172V397H1029.69V366.357H1034.79L1034.93 371.172ZM1044.51 366.188L1044.48 371.059C1044.04 370.964 1043.63 370.908 1043.23 370.889C1042.85 370.851 1042.42 370.832 1041.93 370.832C1040.72 370.832 1039.65 371.021 1038.73 371.398C1037.8 371.776 1037.02 372.305 1036.38 372.984C1035.74 373.664 1035.23 374.476 1034.85 375.42C1034.49 376.345 1034.25 377.365 1034.14 378.479L1032.67 379.328C1032.67 377.478 1032.85 375.741 1033.21 374.117C1033.58 372.493 1034.16 371.059 1034.93 369.812C1035.71 368.548 1036.69 367.566 1037.88 366.867C1039.09 366.15 1040.52 365.791 1042.18 365.791C1042.56 365.791 1043 365.838 1043.49 365.933C1043.98 366.008 1044.32 366.093 1044.51 366.188ZM1055.04 366.357V397H1049.77V366.357H1055.04ZM1049.38 358.229C1049.38 357.38 1049.63 356.662 1050.14 356.077C1050.67 355.492 1051.44 355.199 1052.46 355.199C1053.46 355.199 1054.23 355.492 1054.76 356.077C1055.31 356.662 1055.58 357.38 1055.58 358.229C1055.58 359.041 1055.31 359.74 1054.76 360.325C1054.23 360.892 1053.46 361.175 1052.46 361.175C1051.44 361.175 1050.67 360.892 1050.14 360.325C1049.63 359.74 1049.38 359.041 1049.38 358.229ZM1072.77 392.271L1081.15 366.357H1086.5L1075.49 397H1071.98L1072.77 392.271ZM1065.77 366.357L1074.41 392.412L1075.01 397H1071.5L1060.39 366.357H1065.77ZM1103.87 397.566C1101.73 397.566 1099.8 397.208 1098.06 396.49C1096.34 395.754 1094.86 394.725 1093.61 393.403C1092.39 392.082 1091.44 390.515 1090.78 388.702C1090.12 386.89 1089.79 384.907 1089.79 382.755V381.565C1089.79 379.073 1090.16 376.855 1090.89 374.91C1091.63 372.947 1092.63 371.285 1093.9 369.926C1095.16 368.566 1096.6 367.537 1098.2 366.839C1099.81 366.14 1101.47 365.791 1103.19 365.791C1105.38 365.791 1107.26 366.169 1108.85 366.924C1110.45 367.679 1111.77 368.736 1112.79 370.096C1113.81 371.436 1114.56 373.022 1115.05 374.854C1115.54 376.666 1115.79 378.648 1115.79 380.801V383.151H1092.91V378.875H1110.55V378.479C1110.47 377.119 1110.19 375.798 1109.7 374.514C1109.23 373.23 1108.47 372.173 1107.43 371.342C1106.4 370.511 1104.98 370.096 1103.19 370.096C1102 370.096 1100.9 370.351 1099.9 370.86C1098.9 371.351 1098.04 372.088 1097.32 373.069C1096.61 374.051 1096.05 375.25 1095.65 376.666C1095.26 378.082 1095.06 379.715 1095.06 381.565V382.755C1095.06 384.209 1095.26 385.577 1095.65 386.861C1096.07 388.126 1096.66 389.24 1097.44 390.203C1098.23 391.166 1099.18 391.921 1100.3 392.469C1101.43 393.016 1102.71 393.29 1104.15 393.29C1106 393.29 1107.57 392.912 1108.85 392.157C1110.13 391.402 1111.26 390.392 1112.22 389.127L1115.39 391.647C1114.73 392.648 1113.89 393.602 1112.87 394.508C1111.85 395.414 1110.6 396.15 1109.1 396.717C1107.63 397.283 1105.89 397.566 1103.87 397.566ZM1127.14 372.899V397H1121.91V366.357H1126.86L1127.14 372.899ZM1125.9 380.518L1123.72 380.433C1123.74 378.337 1124.05 376.402 1124.65 374.627C1125.26 372.833 1126.11 371.276 1127.2 369.954C1128.3 368.632 1129.6 367.613 1131.11 366.896C1132.64 366.159 1134.33 365.791 1136.18 365.791C1137.69 365.791 1139.05 365.999 1140.26 366.414C1141.47 366.811 1142.49 367.452 1143.34 368.34C1144.21 369.227 1144.87 370.379 1145.33 371.795C1145.78 373.192 1146.01 374.901 1146.01 376.921V397H1140.74V376.864C1140.74 375.259 1140.5 373.976 1140.03 373.013C1139.56 372.031 1138.87 371.323 1137.96 370.889C1137.06 370.436 1135.94 370.209 1134.62 370.209C1133.32 370.209 1132.13 370.483 1131.05 371.03C1130 371.578 1129.08 372.333 1128.31 373.296C1127.55 374.259 1126.96 375.363 1126.52 376.609C1126.11 377.837 1125.9 379.139 1125.9 380.518ZM1158.72 390.77V394.989C1158.72 396.707 1158.29 398.52 1157.42 400.427C1156.55 402.353 1155.33 403.957 1153.77 405.241L1150.79 403.174C1151.4 402.343 1151.91 401.493 1152.32 400.625C1152.74 399.775 1153.05 398.888 1153.26 397.963C1153.48 397.057 1153.6 396.094 1153.6 395.074V390.77H1158.72ZM1192.05 393.262C1193.3 393.262 1194.45 393.007 1195.51 392.497C1196.57 391.987 1197.44 391.289 1198.12 390.401C1198.79 389.495 1199.18 388.466 1199.28 387.314H1204.26C1204.17 389.127 1203.55 390.817 1202.42 392.384C1201.31 393.932 1199.84 395.188 1198.03 396.15C1196.22 397.094 1194.23 397.566 1192.05 397.566C1189.75 397.566 1187.74 397.16 1186.02 396.349C1184.32 395.537 1182.91 394.423 1181.77 393.007C1180.66 391.591 1179.82 389.967 1179.25 388.136C1178.71 386.285 1178.43 384.331 1178.43 382.273V381.084C1178.43 379.026 1178.71 377.081 1179.25 375.25C1179.82 373.4 1180.66 371.767 1181.77 370.351C1182.91 368.935 1184.32 367.821 1186.02 367.009C1187.74 366.197 1189.75 365.791 1192.05 365.791C1194.45 365.791 1196.55 366.282 1198.34 367.264C1200.14 368.227 1201.54 369.548 1202.56 371.229C1203.6 372.89 1204.17 374.778 1204.26 376.893H1199.28C1199.18 375.628 1198.82 374.485 1198.2 373.466C1197.6 372.446 1196.77 371.634 1195.71 371.03C1194.67 370.407 1193.45 370.096 1192.05 370.096C1190.45 370.096 1189.1 370.417 1188 371.059C1186.93 371.682 1186.07 372.531 1185.43 373.607C1184.8 374.665 1184.35 375.845 1184.07 377.147C1183.8 378.431 1183.67 379.743 1183.67 381.084V382.273C1183.67 383.614 1183.8 384.936 1184.07 386.238C1184.33 387.541 1184.78 388.721 1185.4 389.778C1186.04 390.836 1186.9 391.685 1187.98 392.327C1189.07 392.95 1190.43 393.262 1192.05 393.262ZM1215.84 353.5V397H1210.58V353.5H1215.84ZM1229.95 366.357V397H1224.68V366.357H1229.95ZM1224.28 358.229C1224.28 357.38 1224.54 356.662 1225.05 356.077C1225.58 355.492 1226.35 355.199 1227.37 355.199C1228.37 355.199 1229.14 355.492 1229.66 356.077C1230.21 356.662 1230.49 357.38 1230.49 358.229C1230.49 359.041 1230.21 359.74 1229.66 360.325C1229.14 360.892 1228.37 361.175 1227.37 361.175C1226.35 361.175 1225.58 360.892 1225.05 360.325C1224.54 359.74 1224.28 359.041 1224.28 358.229ZM1251.07 397.566C1248.94 397.566 1247.01 397.208 1245.27 396.49C1243.55 395.754 1242.07 394.725 1240.82 393.403C1239.6 392.082 1238.65 390.515 1237.99 388.702C1237.33 386.89 1237 384.907 1237 382.755V381.565C1237 379.073 1237.37 376.855 1238.1 374.91C1238.84 372.947 1239.84 371.285 1241.11 369.926C1242.37 368.566 1243.81 367.537 1245.41 366.839C1247.01 366.14 1248.68 365.791 1250.39 365.791C1252.58 365.791 1254.47 366.169 1256.06 366.924C1257.66 367.679 1258.98 368.736 1260 370.096C1261.01 371.436 1261.77 373.022 1262.26 374.854C1262.75 376.666 1263 378.648 1263 380.801V383.151H1240.11V378.875H1257.76V378.479C1257.68 377.119 1257.4 375.798 1256.91 374.514C1256.44 373.23 1255.68 372.173 1254.64 371.342C1253.6 370.511 1252.19 370.096 1250.39 370.096C1249.21 370.096 1248.11 370.351 1247.11 370.86C1246.11 371.351 1245.25 372.088 1244.53 373.069C1243.81 374.051 1243.26 375.25 1242.86 376.666C1242.46 378.082 1242.27 379.715 1242.27 381.565V382.755C1242.27 384.209 1242.46 385.577 1242.86 386.861C1243.28 388.126 1243.87 389.24 1244.65 390.203C1245.44 391.166 1246.39 391.921 1247.51 392.469C1248.64 393.016 1249.92 393.29 1251.36 393.29C1253.21 393.29 1254.77 392.912 1256.06 392.157C1257.34 391.402 1258.47 390.392 1259.43 389.127L1262.6 391.647C1261.94 392.648 1261.1 393.602 1260.08 394.508C1259.06 395.414 1257.81 396.15 1256.31 396.717C1254.84 397.283 1253.09 397.566 1251.07 397.566ZM1274.35 372.899V397H1269.11V366.357H1274.07L1274.35 372.899ZM1273.11 380.518L1270.93 380.433C1270.95 378.337 1271.26 376.402 1271.86 374.627C1272.47 372.833 1273.32 371.276 1274.41 369.954C1275.51 368.632 1276.81 367.613 1278.32 366.896C1279.85 366.159 1281.54 365.791 1283.39 365.791C1284.9 365.791 1286.26 365.999 1287.47 366.414C1288.67 366.811 1289.7 367.452 1290.55 368.34C1291.42 369.227 1292.08 370.379 1292.54 371.795C1292.99 373.192 1293.21 374.901 1293.21 376.921V397H1287.95V376.864C1287.95 375.259 1287.71 373.976 1287.24 373.013C1286.77 372.031 1286.08 371.323 1285.17 370.889C1284.27 370.436 1283.15 370.209 1281.83 370.209C1280.53 370.209 1279.34 370.483 1278.26 371.03C1277.2 371.578 1276.29 372.333 1275.51 373.296C1274.76 374.259 1274.16 375.363 1273.73 376.609C1273.32 377.837 1273.11 379.139 1273.11 380.518ZM1314 366.357V370.379H1297.43V366.357H1314ZM1303.04 358.909H1308.28V389.41C1308.28 390.449 1308.44 391.232 1308.76 391.761C1309.08 392.289 1309.5 392.639 1310.01 392.809C1310.52 392.979 1311.07 393.063 1311.65 393.063C1312.09 393.063 1312.54 393.026 1313.01 392.95C1313.5 392.856 1313.87 392.78 1314.12 392.724L1314.14 397C1313.73 397.132 1313.18 397.255 1312.5 397.368C1311.84 397.5 1311.04 397.566 1310.09 397.566C1308.81 397.566 1307.63 397.312 1306.55 396.802C1305.48 396.292 1304.62 395.442 1303.98 394.253C1303.35 393.045 1303.04 391.421 1303.04 389.382V358.909ZM1331.05 377.317V381.622H1317.23V377.317H1331.05ZM1341.42 371.172V397H1336.18V366.357H1341.27L1341.42 371.172ZM1350.99 366.188L1350.96 371.059C1350.53 370.964 1350.11 370.908 1349.71 370.889C1349.34 370.851 1348.9 370.832 1348.41 370.832C1347.2 370.832 1346.14 371.021 1345.21 371.398C1344.29 371.776 1343.5 372.305 1342.86 372.984C1342.22 373.664 1341.71 374.476 1341.33 375.42C1340.97 376.345 1340.74 377.365 1340.62 378.479L1339.15 379.328C1339.15 377.478 1339.33 375.741 1339.69 374.117C1340.07 372.493 1340.64 371.059 1341.42 369.812C1342.19 368.548 1343.17 367.566 1344.36 366.867C1345.57 366.15 1347 365.791 1348.67 365.791C1349.04 365.791 1349.48 365.838 1349.97 365.933C1350.46 366.008 1350.8 366.093 1350.99 366.188ZM1367.98 397.566C1365.85 397.566 1363.91 397.208 1362.17 396.49C1360.46 395.754 1358.97 394.725 1357.73 393.403C1356.5 392.082 1355.56 390.515 1354.9 388.702C1354.24 386.89 1353.91 384.907 1353.91 382.755V381.565C1353.91 379.073 1354.27 376.855 1355.01 374.91C1355.75 372.947 1356.75 371.285 1358.01 369.926C1359.28 368.566 1360.71 367.537 1362.32 366.839C1363.92 366.14 1365.58 365.791 1367.3 365.791C1369.49 365.791 1371.38 366.169 1372.96 366.924C1374.57 367.679 1375.88 368.736 1376.9 370.096C1377.92 371.436 1378.68 373.022 1379.17 374.854C1379.66 376.666 1379.9 378.648 1379.9 380.801V383.151H1357.02V378.875H1374.66V378.479C1374.59 377.119 1374.31 375.798 1373.81 374.514C1373.34 373.23 1372.59 372.173 1371.55 371.342C1370.51 370.511 1369.09 370.096 1367.3 370.096C1366.11 370.096 1365.02 370.351 1364.02 370.86C1363.01 371.351 1362.16 372.088 1361.44 373.069C1360.72 374.051 1360.16 375.25 1359.77 376.666C1359.37 378.082 1359.17 379.715 1359.17 381.565V382.755C1359.17 384.209 1359.37 385.577 1359.77 386.861C1360.18 388.126 1360.78 389.24 1361.55 390.203C1362.34 391.166 1363.3 391.921 1364.41 392.469C1365.54 393.016 1366.83 393.29 1368.26 393.29C1370.11 393.29 1371.68 392.912 1372.96 392.157C1374.25 391.402 1375.37 390.392 1376.33 389.127L1379.51 391.647C1378.85 392.648 1378.01 393.602 1376.99 394.508C1375.97 395.414 1374.71 396.15 1373.22 396.717C1371.75 397.283 1370 397.566 1367.98 397.566ZM1391.26 372.899V397H1386.02V366.357H1390.98L1391.26 372.899ZM1390.01 380.518L1387.83 380.433C1387.85 378.337 1388.16 376.402 1388.77 374.627C1389.37 372.833 1390.22 371.276 1391.32 369.954C1392.41 368.632 1393.71 367.613 1395.22 366.896C1396.75 366.159 1398.44 365.791 1400.29 365.791C1401.8 365.791 1403.16 365.999 1404.37 366.414C1405.58 366.811 1406.61 367.452 1407.46 368.34C1408.33 369.227 1408.99 370.379 1409.44 371.795C1409.89 373.192 1410.12 374.901 1410.12 376.921V397H1404.85V376.864C1404.85 375.259 1404.62 373.976 1404.15 373.013C1403.67 372.031 1402.98 371.323 1402.08 370.889C1401.17 370.436 1400.06 370.209 1398.74 370.209C1397.43 370.209 1396.24 370.483 1395.17 371.03C1394.11 371.578 1393.19 372.333 1392.42 373.296C1391.67 374.259 1391.07 375.363 1390.64 376.609C1390.22 377.837 1390.01 379.139 1390.01 380.518ZM1437.39 391.053V353.5H1442.66V397H1437.85L1437.39 391.053ZM1416.78 382.019V381.424C1416.78 379.083 1417.06 376.959 1417.63 375.052C1418.21 373.126 1419.03 371.474 1420.09 370.096C1421.17 368.717 1422.44 367.66 1423.91 366.924C1425.4 366.169 1427.07 365.791 1428.9 365.791C1430.82 365.791 1432.5 366.131 1433.94 366.811C1435.39 367.471 1436.62 368.444 1437.62 369.728C1438.64 370.993 1439.44 372.522 1440.03 374.315C1440.61 376.109 1441.02 378.139 1441.25 380.404V383.01C1441.04 385.257 1440.63 387.277 1440.03 389.07C1439.44 390.864 1438.64 392.393 1437.62 393.658C1436.62 394.923 1435.39 395.896 1433.94 396.575C1432.48 397.236 1430.79 397.566 1428.84 397.566C1427.05 397.566 1425.4 397.179 1423.91 396.405C1422.44 395.631 1421.17 394.546 1420.09 393.148C1419.03 391.751 1418.21 390.109 1417.63 388.221C1417.06 386.314 1416.78 384.246 1416.78 382.019ZM1422.04 381.424V382.019C1422.04 383.548 1422.19 384.983 1422.5 386.323C1422.82 387.664 1423.31 388.844 1423.97 389.863C1424.63 390.883 1425.47 391.685 1426.49 392.271C1427.51 392.837 1428.73 393.12 1430.14 393.12C1431.88 393.12 1433.31 392.752 1434.42 392.016C1435.55 391.279 1436.46 390.307 1437.14 389.099C1437.82 387.89 1438.35 386.578 1438.72 385.162V378.337C1438.5 377.299 1438.17 376.298 1437.73 375.335C1437.32 374.353 1436.77 373.485 1436.09 372.729C1435.43 371.955 1434.61 371.342 1433.63 370.889C1432.66 370.436 1431.52 370.209 1430.2 370.209C1428.77 370.209 1427.53 370.511 1426.49 371.115C1425.47 371.701 1424.63 372.512 1423.97 373.551C1423.31 374.57 1422.82 375.76 1422.5 377.119C1422.19 378.46 1422.04 379.895 1422.04 381.424ZM1463.53 397.566C1461.4 397.566 1459.46 397.208 1457.73 396.49C1456.01 395.754 1454.53 394.725 1453.28 393.403C1452.05 392.082 1451.11 390.515 1450.45 388.702C1449.79 386.89 1449.46 384.907 1449.46 382.755V381.565C1449.46 379.073 1449.83 376.855 1450.56 374.91C1451.3 372.947 1452.3 371.285 1453.56 369.926C1454.83 368.566 1456.26 367.537 1457.87 366.839C1459.47 366.14 1461.14 365.791 1462.85 365.791C1465.04 365.791 1466.93 366.169 1468.52 366.924C1470.12 367.679 1471.43 368.736 1472.45 370.096C1473.47 371.436 1474.23 373.022 1474.72 374.854C1475.21 376.666 1475.46 378.648 1475.46 380.801V383.151H1452.57V378.875H1470.22V378.479C1470.14 377.119 1469.86 375.798 1469.37 374.514C1468.9 373.23 1468.14 372.173 1467.1 371.342C1466.06 370.511 1464.65 370.096 1462.85 370.096C1461.66 370.096 1460.57 370.351 1459.57 370.86C1458.57 371.351 1457.71 372.088 1456.99 373.069C1456.27 374.051 1455.72 375.25 1455.32 376.666C1454.92 378.082 1454.73 379.715 1454.73 381.565V382.755C1454.73 384.209 1454.92 385.577 1455.32 386.861C1455.74 388.126 1456.33 389.24 1457.1 390.203C1457.9 391.166 1458.85 391.921 1459.96 392.469C1461.1 393.016 1462.38 393.29 1463.82 393.29C1465.67 393.29 1467.23 392.912 1468.52 392.157C1469.8 391.402 1470.92 390.392 1471.89 389.127L1475.06 391.647C1474.4 392.648 1473.56 393.602 1472.54 394.508C1471.52 395.414 1470.26 396.15 1468.77 396.717C1467.3 397.283 1465.55 397.566 1463.53 397.566ZM1486.81 371.172V397H1481.57V366.357H1486.67L1486.81 371.172ZM1496.38 366.188L1496.36 371.059C1495.92 370.964 1495.51 370.908 1495.11 370.889C1494.73 370.851 1494.3 370.832 1493.81 370.832C1492.6 370.832 1491.53 371.021 1490.61 371.398C1489.68 371.776 1488.9 372.305 1488.26 372.984C1487.61 373.664 1487.11 374.476 1486.73 375.42C1486.37 376.345 1486.13 377.365 1486.02 378.479L1484.55 379.328C1484.55 377.478 1484.73 375.741 1485.08 374.117C1485.46 372.493 1486.04 371.059 1486.81 369.812C1487.59 368.548 1488.57 367.566 1489.76 366.867C1490.97 366.15 1492.4 365.791 1494.06 365.791C1494.44 365.791 1494.87 365.838 1495.37 365.933C1495.86 366.008 1496.2 366.093 1496.38 366.188ZM1513.38 397.566C1511.24 397.566 1509.31 397.208 1507.57 396.49C1505.85 395.754 1504.37 394.725 1503.12 393.403C1501.9 392.082 1500.95 390.515 1500.29 388.702C1499.63 386.89 1499.3 384.907 1499.3 382.755V381.565C1499.3 379.073 1499.67 376.855 1500.41 374.91C1501.14 372.947 1502.14 371.285 1503.41 369.926C1504.67 368.566 1506.11 367.537 1507.71 366.839C1509.32 366.14 1510.98 365.791 1512.7 365.791C1514.89 365.791 1516.78 366.169 1518.36 366.924C1519.97 367.679 1521.28 368.736 1522.3 370.096C1523.32 371.436 1524.07 373.022 1524.56 374.854C1525.05 376.666 1525.3 378.648 1525.3 380.801V383.151H1502.42V378.875H1520.06V378.479C1519.99 377.119 1519.7 375.798 1519.21 374.514C1518.74 373.23 1517.98 372.173 1516.95 371.342C1515.91 370.511 1514.49 370.096 1512.7 370.096C1511.51 370.096 1510.41 370.351 1509.41 370.86C1508.41 371.351 1507.55 372.088 1506.83 373.069C1506.12 374.051 1505.56 375.25 1505.16 376.666C1504.77 378.082 1504.57 379.715 1504.57 381.565V382.755C1504.57 384.209 1504.77 385.577 1505.16 386.861C1505.58 388.126 1506.17 389.24 1506.95 390.203C1507.74 391.166 1508.69 391.921 1509.81 392.469C1510.94 393.016 1512.23 393.29 1513.66 393.29C1515.51 393.29 1517.08 392.912 1518.36 392.157C1519.65 391.402 1520.77 390.392 1521.73 389.127L1524.9 391.647C1524.24 392.648 1523.4 393.602 1522.38 394.508C1521.36 395.414 1520.11 396.15 1518.62 396.717C1517.14 397.283 1515.4 397.566 1513.38 397.566ZM1550.73 391.053V353.5H1556V397H1551.18L1550.73 391.053ZM1530.11 382.019V381.424C1530.11 379.083 1530.4 376.959 1530.96 375.052C1531.55 373.126 1532.37 371.474 1533.43 370.096C1534.5 368.717 1535.78 367.66 1537.25 366.924C1538.74 366.169 1540.4 365.791 1542.24 365.791C1544.16 365.791 1545.84 366.131 1547.28 366.811C1548.73 367.471 1549.96 368.444 1550.96 369.728C1551.98 370.993 1552.78 372.522 1553.37 374.315C1553.95 376.109 1554.36 378.139 1554.58 380.404V383.01C1554.38 385.257 1553.97 387.277 1553.37 389.07C1552.78 390.864 1551.98 392.393 1550.96 393.658C1549.96 394.923 1548.73 395.896 1547.28 396.575C1545.82 397.236 1544.12 397.566 1542.18 397.566C1540.39 397.566 1538.74 397.179 1537.25 396.405C1535.78 395.631 1534.5 394.546 1533.43 393.148C1532.37 391.751 1531.55 390.109 1530.96 388.221C1530.4 386.314 1530.11 384.246 1530.11 382.019ZM1535.38 381.424V382.019C1535.38 383.548 1535.53 384.983 1535.83 386.323C1536.16 387.664 1536.65 388.844 1537.31 389.863C1537.97 390.883 1538.81 391.685 1539.83 392.271C1540.85 392.837 1542.07 393.12 1543.48 393.12C1545.22 393.12 1546.64 392.752 1547.76 392.016C1548.89 391.279 1549.8 390.307 1550.48 389.099C1551.16 387.89 1551.68 386.578 1552.06 385.162V378.337C1551.84 377.299 1551.51 376.298 1551.07 375.335C1550.66 374.353 1550.11 373.485 1549.43 372.729C1548.77 371.955 1547.95 371.342 1546.96 370.889C1546 370.436 1544.86 370.209 1543.54 370.209C1542.1 370.209 1540.87 370.511 1539.83 371.115C1538.81 371.701 1537.97 372.512 1537.31 373.551C1536.65 374.57 1536.16 375.76 1535.83 377.119C1535.53 378.46 1535.38 379.895 1535.38 381.424ZM1596.61 391.761V375.986C1596.61 374.778 1596.36 373.73 1595.87 372.843C1595.4 371.937 1594.68 371.238 1593.72 370.747C1592.76 370.256 1591.57 370.011 1590.15 370.011C1588.83 370.011 1587.67 370.237 1586.67 370.69C1585.69 371.144 1584.91 371.738 1584.35 372.475C1583.8 373.211 1583.53 374.004 1583.53 374.854H1578.29C1578.29 373.758 1578.57 372.673 1579.14 371.597C1579.7 370.521 1580.51 369.548 1581.57 368.68C1582.65 367.792 1583.93 367.094 1585.42 366.584C1586.93 366.055 1588.61 365.791 1590.46 365.791C1592.69 365.791 1594.66 366.169 1596.36 366.924C1598.07 367.679 1599.41 368.821 1600.38 370.351C1601.36 371.861 1601.85 373.758 1601.85 376.043V390.316C1601.85 391.336 1601.93 392.422 1602.1 393.573C1602.29 394.725 1602.57 395.716 1602.93 396.547V397H1597.46C1597.2 396.396 1596.99 395.593 1596.84 394.593C1596.69 393.573 1596.61 392.629 1596.61 391.761ZM1597.52 378.422L1597.57 382.104H1592.28C1590.79 382.104 1589.45 382.226 1588.28 382.472C1587.11 382.698 1586.13 383.048 1585.34 383.52C1584.55 383.992 1583.94 384.586 1583.53 385.304C1583.11 386.002 1582.9 386.824 1582.9 387.768C1582.9 388.73 1583.12 389.608 1583.55 390.401C1583.99 391.194 1584.64 391.827 1585.51 392.299C1586.4 392.752 1587.48 392.979 1588.77 392.979C1590.37 392.979 1591.79 392.639 1593.01 391.959C1594.24 391.279 1595.21 390.449 1595.93 389.467C1596.67 388.485 1597.06 387.532 1597.12 386.606L1599.36 389.127C1599.23 389.92 1598.87 390.798 1598.28 391.761C1597.7 392.724 1596.91 393.649 1595.93 394.536C1594.97 395.405 1593.82 396.132 1592.48 396.717C1591.15 397.283 1589.66 397.566 1588 397.566C1585.92 397.566 1584.1 397.16 1582.54 396.349C1580.99 395.537 1579.78 394.451 1578.91 393.092C1578.06 391.714 1577.64 390.175 1577.64 388.476C1577.64 386.833 1577.96 385.389 1578.6 384.143C1579.24 382.878 1580.17 381.83 1581.37 380.999C1582.58 380.149 1584.04 379.507 1585.74 379.073C1587.43 378.639 1589.33 378.422 1591.43 378.422H1597.52ZM1615.33 372.248V408.781H1610.06V366.357H1614.88L1615.33 372.248ZM1635.98 381.424V382.019C1635.98 384.246 1635.71 386.314 1635.18 388.221C1634.65 390.109 1633.88 391.751 1632.86 393.148C1631.86 394.546 1630.62 395.631 1629.15 396.405C1627.68 397.179 1625.99 397.566 1624.08 397.566C1622.14 397.566 1620.42 397.245 1618.93 396.604C1617.44 395.962 1616.17 395.027 1615.13 393.8C1614.09 392.573 1613.26 391.1 1612.64 389.382C1612.04 387.664 1611.62 385.729 1611.39 383.576V380.404C1611.62 378.139 1612.04 376.109 1612.67 374.315C1613.29 372.522 1614.11 370.993 1615.13 369.728C1616.17 368.444 1617.43 367.471 1618.9 366.811C1620.37 366.131 1622.07 365.791 1624 365.791C1625.92 365.791 1627.63 366.169 1629.12 366.924C1630.61 367.66 1631.87 368.717 1632.89 370.096C1633.91 371.474 1634.67 373.126 1635.18 375.052C1635.71 376.959 1635.98 379.083 1635.98 381.424ZM1630.71 382.019V381.424C1630.71 379.895 1630.55 378.46 1630.23 377.119C1629.91 375.76 1629.41 374.57 1628.73 373.551C1628.06 372.512 1627.22 371.701 1626.18 371.115C1625.14 370.511 1623.9 370.209 1622.47 370.209C1621.15 370.209 1619.99 370.436 1619.01 370.889C1618.05 371.342 1617.23 371.955 1616.55 372.729C1615.87 373.485 1615.31 374.353 1614.88 375.335C1614.46 376.298 1614.15 377.299 1613.94 378.337V385.672C1614.32 386.993 1614.85 388.24 1615.53 389.41C1616.21 390.562 1617.11 391.496 1618.25 392.214C1619.38 392.912 1620.81 393.262 1622.52 393.262C1623.94 393.262 1625.16 392.969 1626.18 392.384C1627.22 391.78 1628.06 390.958 1628.73 389.92C1629.41 388.882 1629.91 387.692 1630.23 386.352C1630.55 384.992 1630.71 383.548 1630.71 382.019ZM1647.9 372.248V408.781H1642.63V366.357H1647.45L1647.9 372.248ZM1668.54 381.424V382.019C1668.54 384.246 1668.28 386.314 1667.75 388.221C1667.22 390.109 1666.45 391.751 1665.43 393.148C1664.43 394.546 1663.19 395.631 1661.72 396.405C1660.25 397.179 1658.56 397.566 1656.65 397.566C1654.7 397.566 1652.99 397.245 1651.5 396.604C1650 395.962 1648.74 395.027 1647.7 393.8C1646.66 392.573 1645.83 391.1 1645.21 389.382C1644.6 387.664 1644.19 385.729 1643.96 383.576V380.404C1644.19 378.139 1644.61 376.109 1645.24 374.315C1645.86 372.522 1646.68 370.993 1647.7 369.728C1648.74 368.444 1649.99 367.471 1651.47 366.811C1652.94 366.131 1654.64 365.791 1656.56 365.791C1658.49 365.791 1660.2 366.169 1661.69 366.924C1663.18 367.66 1664.44 368.717 1665.46 370.096C1666.48 371.474 1667.24 373.126 1667.75 375.052C1668.28 376.959 1668.54 379.083 1668.54 381.424ZM1663.28 382.019V381.424C1663.28 379.895 1663.12 378.46 1662.79 377.119C1662.47 375.76 1661.97 374.57 1661.29 373.551C1660.63 372.512 1659.78 371.701 1658.75 371.115C1657.71 370.511 1656.47 370.209 1655.04 370.209C1653.71 370.209 1652.56 370.436 1651.58 370.889C1650.62 371.342 1649.8 371.955 1649.12 372.729C1648.44 373.485 1647.88 374.353 1647.45 375.335C1647.03 376.298 1646.72 377.299 1646.51 378.337V385.672C1646.89 386.993 1647.42 388.24 1648.1 389.41C1648.78 390.562 1649.68 391.496 1650.82 392.214C1651.95 392.912 1653.37 393.262 1655.09 393.262C1656.51 393.262 1657.73 392.969 1658.75 392.384C1659.78 391.78 1660.63 390.958 1661.29 389.92C1661.97 388.882 1662.47 387.692 1662.79 386.352C1663.12 384.992 1663.28 383.548 1663.28 382.019ZM1680.92 353.5V397H1675.65V353.5H1680.92ZM1695.02 366.357V397H1689.76V366.357H1695.02ZM1689.36 358.229C1689.36 357.38 1689.61 356.662 1690.12 356.077C1690.65 355.492 1691.43 355.199 1692.45 355.199C1693.45 355.199 1694.21 355.492 1694.74 356.077C1695.29 356.662 1695.56 357.38 1695.56 358.229C1695.56 359.041 1695.29 359.74 1694.74 360.325C1694.21 360.892 1693.45 361.175 1692.45 361.175C1691.43 361.175 1690.65 360.892 1690.12 360.325C1689.61 359.74 1689.36 359.041 1689.36 358.229ZM1715.7 393.262C1716.94 393.262 1718.1 393.007 1719.15 392.497C1720.21 391.987 1721.08 391.289 1721.76 390.401C1722.44 389.495 1722.82 388.466 1722.92 387.314H1727.9C1727.81 389.127 1727.2 390.817 1726.06 392.384C1724.95 393.932 1723.49 395.188 1721.67 396.15C1719.86 397.094 1717.87 397.566 1715.7 397.566C1713.39 397.566 1711.38 397.16 1709.67 396.349C1707.97 395.537 1706.55 394.423 1705.42 393.007C1704.3 391.591 1703.46 389.967 1702.9 388.136C1702.35 386.285 1702.08 384.331 1702.08 382.273V381.084C1702.08 379.026 1702.35 377.081 1702.9 375.25C1703.46 373.4 1704.3 371.767 1705.42 370.351C1706.55 368.935 1707.97 367.821 1709.67 367.009C1711.38 366.197 1713.39 365.791 1715.7 365.791C1718.1 365.791 1720.19 366.282 1721.98 367.264C1723.78 368.227 1725.18 369.548 1726.2 371.229C1727.24 372.89 1727.81 374.778 1727.9 376.893H1722.92C1722.82 375.628 1722.47 374.485 1721.84 373.466C1721.24 372.446 1720.41 371.634 1719.35 371.03C1718.31 370.407 1717.09 370.096 1715.7 370.096C1714.09 370.096 1712.74 370.417 1711.65 371.059C1710.57 371.682 1709.71 372.531 1709.07 373.607C1708.45 374.665 1707.99 375.845 1707.71 377.147C1707.45 378.431 1707.31 379.743 1707.31 381.084V382.273C1707.31 383.614 1707.45 384.936 1707.71 386.238C1707.98 387.541 1708.42 388.721 1709.04 389.778C1709.68 390.836 1710.54 391.685 1711.62 392.327C1712.71 392.95 1714.07 393.262 1715.7 393.262ZM1751.86 391.761V375.986C1751.86 374.778 1751.62 373.73 1751.13 372.843C1750.65 371.937 1749.94 371.238 1748.97 370.747C1748.01 370.256 1746.82 370.011 1745.41 370.011C1744.08 370.011 1742.92 370.237 1741.92 370.69C1740.94 371.144 1740.17 371.738 1739.6 372.475C1739.05 373.211 1738.78 374.004 1738.78 374.854H1733.54C1733.54 373.758 1733.82 372.673 1734.39 371.597C1734.96 370.521 1735.77 369.548 1736.82 368.68C1737.9 367.792 1739.18 367.094 1740.68 366.584C1742.19 366.055 1743.87 365.791 1745.72 365.791C1747.94 365.791 1749.91 366.169 1751.61 366.924C1753.33 367.679 1754.67 368.821 1755.63 370.351C1756.61 371.861 1757.1 373.758 1757.1 376.043V390.316C1757.1 391.336 1757.19 392.422 1757.36 393.573C1757.55 394.725 1757.82 395.716 1758.18 396.547V397H1752.71C1752.45 396.396 1752.24 395.593 1752.09 394.593C1751.94 393.573 1751.86 392.629 1751.86 391.761ZM1752.77 378.422L1752.83 382.104H1747.53C1746.04 382.104 1744.71 382.226 1743.54 382.472C1742.37 382.698 1741.38 383.048 1740.59 383.52C1739.8 383.992 1739.19 384.586 1738.78 385.304C1738.36 386.002 1738.16 386.824 1738.16 387.768C1738.16 388.73 1738.37 389.608 1738.81 390.401C1739.24 391.194 1739.89 391.827 1740.76 392.299C1741.65 392.752 1742.73 392.979 1744.02 392.979C1745.62 392.979 1747.04 392.639 1748.27 391.959C1749.49 391.279 1750.47 390.449 1751.18 389.467C1751.92 388.485 1752.32 387.532 1752.37 386.606L1754.61 389.127C1754.48 389.92 1754.12 390.798 1753.53 391.761C1752.95 392.724 1752.16 393.649 1751.18 394.536C1750.22 395.405 1749.07 396.132 1747.73 396.717C1746.41 397.283 1744.91 397.566 1743.25 397.566C1741.18 397.566 1739.35 397.16 1737.79 396.349C1736.24 395.537 1735.03 394.451 1734.16 393.092C1733.31 391.714 1732.89 390.175 1732.89 388.476C1732.89 386.833 1733.21 385.389 1733.85 384.143C1734.49 382.878 1735.42 381.83 1736.63 380.999C1737.83 380.149 1739.29 379.507 1740.99 379.073C1742.69 378.639 1744.58 378.422 1746.68 378.422H1752.77ZM1778.17 366.357V370.379H1761.6V366.357H1778.17ZM1767.21 358.909H1772.45V389.41C1772.45 390.449 1772.61 391.232 1772.93 391.761C1773.25 392.289 1773.67 392.639 1774.18 392.809C1774.69 392.979 1775.24 393.063 1775.82 393.063C1776.26 393.063 1776.71 393.026 1777.18 392.95C1777.67 392.856 1778.04 392.78 1778.29 392.724L1778.31 397C1777.9 397.132 1777.35 397.255 1776.67 397.368C1776.01 397.5 1775.21 397.566 1774.26 397.566C1772.98 397.566 1771.8 397.312 1770.72 396.802C1769.65 396.292 1768.79 395.442 1768.15 394.253C1767.52 393.045 1767.21 391.421 1767.21 389.382V358.909ZM1790.01 366.357V397H1784.74V366.357H1790.01ZM1784.35 358.229C1784.35 357.38 1784.6 356.662 1785.11 356.077C1785.64 355.492 1786.41 355.199 1787.43 355.199C1788.43 355.199 1789.2 355.492 1789.73 356.077C1790.27 356.662 1790.55 357.38 1790.55 358.229C1790.55 359.041 1790.27 359.74 1789.73 360.325C1789.2 360.892 1788.43 361.175 1787.43 361.175C1786.41 361.175 1785.64 360.892 1785.11 360.325C1784.6 359.74 1784.35 359.041 1784.35 358.229ZM1797.03 382.019V381.367C1797.03 379.158 1797.35 377.11 1798 375.222C1798.64 373.315 1799.56 371.663 1800.77 370.266C1801.98 368.85 1803.44 367.755 1805.16 366.98C1806.88 366.188 1808.81 365.791 1810.94 365.791C1813.09 365.791 1815.03 366.188 1816.74 366.98C1818.48 367.755 1819.95 368.85 1821.16 370.266C1822.39 371.663 1823.32 373.315 1823.97 375.222C1824.61 377.11 1824.93 379.158 1824.93 381.367V382.019C1824.93 384.228 1824.61 386.276 1823.97 388.164C1823.32 390.052 1822.39 391.704 1821.16 393.12C1819.95 394.517 1818.49 395.612 1816.77 396.405C1815.07 397.179 1813.15 397.566 1811 397.566C1808.84 397.566 1806.91 397.179 1805.19 396.405C1803.47 395.612 1802 394.517 1800.77 393.12C1799.56 391.704 1798.64 390.052 1798 388.164C1797.35 386.276 1797.03 384.228 1797.03 382.019ZM1802.27 381.367V382.019C1802.27 383.548 1802.45 384.992 1802.81 386.352C1803.17 387.692 1803.71 388.882 1804.42 389.92C1805.16 390.958 1806.08 391.78 1807.17 392.384C1808.27 392.969 1809.54 393.262 1811 393.262C1812.43 393.262 1813.69 392.969 1814.76 392.384C1815.86 391.78 1816.76 390.958 1817.48 389.92C1818.2 388.882 1818.74 387.692 1819.09 386.352C1819.47 384.992 1819.66 383.548 1819.66 382.019V381.367C1819.66 379.857 1819.47 378.431 1819.09 377.091C1818.74 375.731 1818.19 374.533 1817.45 373.494C1816.73 372.437 1815.83 371.606 1814.73 371.002C1813.66 370.398 1812.39 370.096 1810.94 370.096C1809.5 370.096 1808.24 370.398 1807.14 371.002C1806.07 371.606 1805.16 372.437 1804.42 373.494C1803.71 374.533 1803.17 375.731 1802.81 377.091C1802.45 378.431 1802.27 379.857 1802.27 381.367ZM1836.74 372.899V397H1831.5V366.357H1836.46L1836.74 372.899ZM1835.49 380.518L1833.31 380.433C1833.33 378.337 1833.64 376.402 1834.25 374.627C1834.85 372.833 1835.7 371.276 1836.79 369.954C1837.89 368.632 1839.19 367.613 1840.7 366.896C1842.23 366.159 1843.92 365.791 1845.77 365.791C1847.28 365.791 1848.64 365.999 1849.85 366.414C1851.06 366.811 1852.09 367.452 1852.94 368.34C1853.81 369.227 1854.47 370.379 1854.92 371.795C1855.37 373.192 1855.6 374.901 1855.6 376.921V397H1850.33V376.864C1850.33 375.259 1850.1 373.976 1849.62 373.013C1849.15 372.031 1848.46 371.323 1847.56 370.889C1846.65 370.436 1845.54 370.209 1844.21 370.209C1842.91 370.209 1841.72 370.483 1840.65 371.03C1839.59 371.578 1838.67 372.333 1837.9 373.296C1837.14 374.259 1836.55 375.363 1836.12 376.609C1835.7 377.837 1835.49 379.139 1835.49 380.518ZM1881.4 388.872C1881.4 388.117 1881.23 387.418 1880.89 386.776C1880.57 386.116 1879.9 385.521 1878.88 384.992C1877.88 384.445 1876.37 383.973 1874.35 383.576C1872.65 383.217 1871.11 382.793 1869.73 382.302C1868.37 381.811 1867.21 381.216 1866.25 380.518C1865.3 379.819 1864.58 378.998 1864.07 378.054C1863.56 377.11 1863.3 376.005 1863.3 374.74C1863.3 373.532 1863.57 372.39 1864.1 371.313C1864.64 370.237 1865.41 369.284 1866.39 368.453C1867.39 367.622 1868.59 366.971 1869.99 366.499C1871.38 366.027 1872.94 365.791 1874.66 365.791C1877.11 365.791 1879.21 366.225 1880.95 367.094C1882.68 367.962 1884.01 369.123 1884.94 370.577C1885.86 372.012 1886.33 373.607 1886.33 375.363H1881.09C1881.09 374.514 1880.83 373.692 1880.32 372.899C1879.83 372.088 1879.11 371.417 1878.14 370.889C1877.2 370.36 1876.04 370.096 1874.66 370.096C1873.21 370.096 1872.03 370.322 1871.12 370.775C1870.23 371.21 1869.58 371.767 1869.17 372.446C1868.77 373.126 1868.57 373.843 1868.57 374.599C1868.57 375.165 1868.66 375.675 1868.85 376.128C1869.06 376.562 1869.42 376.968 1869.93 377.346C1870.44 377.704 1871.16 378.044 1872.08 378.365C1873.01 378.686 1874.19 379.007 1875.62 379.328C1878.13 379.895 1880.2 380.574 1881.82 381.367C1883.45 382.16 1884.66 383.132 1885.45 384.284C1886.24 385.436 1886.64 386.833 1886.64 388.476C1886.64 389.816 1886.36 391.043 1885.79 392.157C1885.24 393.271 1884.44 394.234 1883.38 395.046C1882.34 395.839 1881.1 396.462 1879.64 396.915C1878.21 397.349 1876.59 397.566 1874.8 397.566C1872.1 397.566 1869.82 397.085 1867.95 396.122C1866.08 395.159 1864.66 393.913 1863.7 392.384C1862.74 390.854 1862.25 389.24 1862.25 387.541H1867.52C1867.6 388.976 1868.01 390.118 1868.77 390.968C1869.52 391.799 1870.45 392.393 1871.54 392.752C1872.64 393.092 1873.72 393.262 1874.8 393.262C1876.24 393.262 1877.43 393.073 1878.4 392.695C1879.38 392.318 1880.12 391.799 1880.63 391.138C1881.14 390.477 1881.4 389.722 1881.4 388.872Z" fill="#EFA8CA" fill-opacity="0.74"/>
<defs>
<linearGradient id="paint0_linear_904_116" x1="784.928" y1="297.895" x2="1977.57" y2="97.216" gradientUnits="userSpaceOnUse">
<stop stop-color="#D8B4FE"/>
<stop offset="1" stop-color="#FB7185"/>
</linearGradient>
</defs>
</svg>
