<svg width="810" height="251" viewBox="0 0 810 251" fill="none" xmlns="http://www.w3.org/2000/svg">
<g clip-path="url(#clip0_701_129)">
<g filter="url(#filter0_f_701_129)">
<rect x="187.173" y="128" width="35.1102" height="34.7506" transform="rotate(-45 187.173 128)" fill="url(#paint0_linear_701_129)"/>
</g>
<path d="M224.011 141.867C231.777 136.673 237.362 123.93 230.373 111.667L211.738 85.8601C207.169 90.2014 204.354 94.0765 203.079 98.3026C199.982 108.569 207.265 118.667 213.541 127.362L224.011 141.867Z" fill="url(#paint1_linear_701_129)"/>
<path d="M211.199 171.517C218.965 166.323 224.55 153.581 217.561 141.318L198.926 115.511C194.357 119.852 191.542 123.727 190.267 127.953C187.17 138.22 194.453 148.318 200.729 157.013L211.199 171.517Z" fill="url(#paint2_linear_701_129)"/>
<path d="M299.259 155.727C299.186 155.116 298.892 154.641 298.377 154.303C297.862 153.964 297.23 153.795 296.482 153.795C295.934 153.795 295.455 153.884 295.045 154.061C294.638 154.238 294.32 154.482 294.091 154.792C293.866 155.101 293.753 155.454 293.753 155.848C293.753 156.178 293.831 156.462 293.988 156.699C294.149 156.933 294.355 157.128 294.604 157.285C294.854 157.438 295.115 157.565 295.389 157.665C295.663 157.762 295.914 157.84 296.143 157.901L297.399 158.239C297.721 158.323 298.079 158.44 298.474 158.589C298.872 158.738 299.252 158.941 299.615 159.199C299.981 159.452 300.283 159.778 300.52 160.176C300.758 160.575 300.876 161.064 300.876 161.643C300.876 162.312 300.701 162.915 300.351 163.455C300.005 163.994 299.498 164.422 298.83 164.74C298.166 165.058 297.359 165.217 296.409 165.217C295.524 165.217 294.757 165.074 294.109 164.789C293.465 164.503 292.958 164.105 292.588 163.593C292.221 163.082 292.014 162.489 291.966 161.812H293.511C293.552 162.279 293.709 162.666 293.982 162.972C294.26 163.273 294.61 163.499 295.033 163.648C295.459 163.793 295.918 163.865 296.409 163.865C296.981 163.865 297.494 163.772 297.949 163.587C298.403 163.398 298.763 163.137 299.029 162.803C299.295 162.464 299.428 162.07 299.428 161.619C299.428 161.209 299.313 160.875 299.083 160.617C298.854 160.36 298.552 160.15 298.178 159.989C297.804 159.828 297.399 159.687 296.964 159.567L295.443 159.132C294.477 158.854 293.713 158.458 293.149 157.943C292.586 157.428 292.304 156.754 292.304 155.92C292.304 155.228 292.491 154.625 292.865 154.109C293.244 153.59 293.751 153.188 294.387 152.902C295.027 152.612 295.741 152.467 296.53 152.467C297.327 152.467 298.035 152.61 298.655 152.896C299.275 153.178 299.766 153.564 300.128 154.055C300.494 154.546 300.687 155.103 300.707 155.727H299.259ZM306.778 165.193C305.884 165.193 305.113 164.996 304.465 164.602C303.821 164.203 303.324 163.648 302.974 162.935C302.628 162.219 302.455 161.386 302.455 160.436C302.455 159.486 302.628 158.649 302.974 157.925C303.324 157.196 303.811 156.629 304.435 156.222C305.063 155.812 305.796 155.607 306.633 155.607C307.116 155.607 307.593 155.687 308.063 155.848C308.534 156.009 308.963 156.271 309.349 156.633C309.736 156.991 310.044 157.466 310.273 158.058C310.502 158.649 310.617 159.378 310.617 160.243V160.847H303.469V159.615H309.168C309.168 159.092 309.064 158.625 308.854 158.214C308.649 157.804 308.355 157.48 307.973 157.243C307.595 157.005 307.148 156.886 306.633 156.886C306.065 156.886 305.574 157.027 305.16 157.309C304.749 157.587 304.433 157.949 304.212 158.396C303.991 158.842 303.88 159.321 303.88 159.832V160.653C303.88 161.354 304.001 161.947 304.242 162.434C304.488 162.917 304.828 163.286 305.262 163.539C305.697 163.789 306.202 163.913 306.778 163.913C307.152 163.913 307.49 163.861 307.792 163.756C308.098 163.648 308.361 163.487 308.583 163.273C308.804 163.056 308.975 162.786 309.096 162.464L310.472 162.851C310.327 163.318 310.084 163.728 309.742 164.082C309.4 164.433 308.977 164.706 308.474 164.903C307.971 165.097 307.405 165.193 306.778 165.193ZM312.529 165V155.727H313.906V157.128H314.002C314.171 156.669 314.477 156.297 314.92 156.011C315.363 155.725 315.862 155.582 316.417 155.582C316.522 155.582 316.653 155.584 316.81 155.588C316.966 155.592 317.085 155.598 317.166 155.607V157.055C317.117 157.043 317.007 157.025 316.834 157.001C316.665 156.973 316.486 156.959 316.296 156.959C315.846 156.959 315.443 157.053 315.089 157.243C314.739 157.428 314.461 157.685 314.256 158.015C314.055 158.341 313.954 158.714 313.954 159.132V165H312.529ZM326.464 155.727L323.035 165H321.586L318.157 155.727H319.703L322.262 163.116H322.359L324.919 155.727H326.464ZM331.645 165.193C330.752 165.193 329.981 164.996 329.333 164.602C328.689 164.203 328.192 163.648 327.842 162.935C327.496 162.219 327.323 161.386 327.323 160.436C327.323 159.486 327.496 158.649 327.842 157.925C328.192 157.196 328.679 156.629 329.303 156.222C329.931 155.812 330.663 155.607 331.501 155.607C331.983 155.607 332.46 155.687 332.931 155.848C333.402 156.009 333.831 156.271 334.217 156.633C334.603 156.991 334.911 157.466 335.141 158.058C335.37 158.649 335.485 159.378 335.485 160.243V160.847H328.337V159.615H334.036C334.036 159.092 333.931 158.625 333.722 158.214C333.517 157.804 333.223 157.48 332.841 157.243C332.462 157.005 332.016 156.886 331.501 156.886C330.933 156.886 330.442 157.027 330.027 157.309C329.617 157.587 329.301 157.949 329.08 158.396C328.858 158.842 328.748 159.321 328.748 159.832V160.653C328.748 161.354 328.868 161.947 329.11 162.434C329.355 162.917 329.695 163.286 330.13 163.539C330.565 163.789 331.07 163.913 331.645 163.913C332.02 163.913 332.358 163.861 332.66 163.756C332.965 163.648 333.229 163.487 333.45 163.273C333.672 163.056 333.843 162.786 333.964 162.464L335.34 162.851C335.195 163.318 334.952 163.728 334.61 164.082C334.267 164.433 333.845 164.706 333.342 164.903C332.839 165.097 332.273 165.193 331.645 165.193ZM337.397 165V155.727H338.774V157.128H338.87C339.039 156.669 339.345 156.297 339.788 156.011C340.23 155.725 340.73 155.582 341.285 155.582C341.39 155.582 341.52 155.584 341.677 155.588C341.834 155.592 341.953 155.598 342.034 155.607V157.055C341.985 157.043 341.875 157.025 341.701 157.001C341.532 156.973 341.353 156.959 341.164 156.959C340.713 156.959 340.311 157.053 339.957 157.243C339.607 157.428 339.329 157.685 339.124 158.015C338.922 158.341 338.822 158.714 338.822 159.132V165H337.397ZM348.099 159.036V160.364H342.69V159.036H348.099ZM353.852 165.193C353.08 165.193 352.398 164.998 351.806 164.608C351.214 164.213 350.751 163.658 350.417 162.941C350.083 162.221 349.916 161.37 349.916 160.388C349.916 159.414 350.083 158.569 350.417 157.852C350.751 157.136 351.216 156.583 351.812 156.192C352.408 155.802 353.096 155.607 353.877 155.607C354.48 155.607 354.957 155.707 355.307 155.908C355.661 156.106 355.931 156.331 356.116 156.585C356.305 156.834 356.452 157.039 356.557 157.2H356.678V152.636H358.102V165H356.726V163.575H356.557C356.452 163.744 356.303 163.958 356.11 164.215C355.917 164.469 355.641 164.696 355.283 164.897C354.925 165.095 354.448 165.193 353.852 165.193ZM354.046 163.913C354.617 163.913 355.1 163.764 355.494 163.467C355.889 163.165 356.189 162.748 356.394 162.217C356.599 161.682 356.702 161.064 356.702 160.364C356.702 159.671 356.601 159.066 356.4 158.547C356.199 158.023 355.901 157.617 355.507 157.327C355.112 157.033 354.625 156.886 354.046 156.886C353.442 156.886 352.939 157.041 352.536 157.351C352.138 157.657 351.838 158.074 351.637 158.601C351.44 159.124 351.341 159.712 351.341 160.364C351.341 161.024 351.442 161.623 351.643 162.163C351.848 162.698 352.15 163.125 352.548 163.442C352.951 163.756 353.45 163.913 354.046 163.913ZM360.655 165V155.727H362.031V157.128H362.128C362.297 156.669 362.603 156.297 363.045 156.011C363.488 155.725 363.987 155.582 364.542 155.582C364.647 155.582 364.778 155.584 364.935 155.588C365.092 155.592 365.21 155.598 365.291 155.607V157.055C365.243 157.043 365.132 157.025 364.959 157.001C364.79 156.973 364.611 156.959 364.422 156.959C363.971 156.959 363.568 157.053 363.214 157.243C362.864 157.428 362.586 157.685 362.381 158.015C362.18 158.341 362.079 158.714 362.079 159.132V165H360.655ZM366.725 165V155.727H368.15V165H366.725ZM367.449 154.182C367.172 154.182 366.932 154.087 366.731 153.898C366.534 153.709 366.435 153.482 366.435 153.216C366.435 152.95 366.534 152.723 366.731 152.534C366.932 152.345 367.172 152.25 367.449 152.25C367.727 152.25 367.964 152.345 368.162 152.534C368.363 152.723 368.463 152.95 368.463 153.216C368.463 153.482 368.363 153.709 368.162 153.898C367.964 154.087 367.727 154.182 367.449 154.182ZM378.086 155.727L374.657 165H373.209L369.78 155.727H371.325L373.885 163.116H373.981L376.541 155.727H378.086ZM383.268 165.193C382.374 165.193 381.603 164.996 380.955 164.602C380.312 164.203 379.814 163.648 379.464 162.935C379.118 162.219 378.945 161.386 378.945 160.436C378.945 159.486 379.118 158.649 379.464 157.925C379.814 157.196 380.301 156.629 380.925 156.222C381.553 155.812 382.286 155.607 383.123 155.607C383.606 155.607 384.083 155.687 384.553 155.848C385.024 156.009 385.453 156.271 385.839 156.633C386.226 156.991 386.534 157.466 386.763 158.058C386.992 158.649 387.107 159.378 387.107 160.243V160.847H379.959V159.615H385.658C385.658 159.092 385.554 158.625 385.344 158.214C385.139 157.804 384.845 157.48 384.463 157.243C384.085 157.005 383.638 156.886 383.123 156.886C382.555 156.886 382.064 157.027 381.65 157.309C381.239 157.587 380.923 157.949 380.702 158.396C380.481 158.842 380.37 159.321 380.37 159.832V160.653C380.37 161.354 380.491 161.947 380.732 162.434C380.978 162.917 381.318 163.286 381.752 163.539C382.187 163.789 382.692 163.913 383.268 163.913C383.642 163.913 383.98 163.861 384.282 163.756C384.588 163.648 384.851 163.487 385.073 163.273C385.294 163.056 385.465 162.786 385.586 162.464L386.962 162.851C386.817 163.318 386.574 163.728 386.232 164.082C385.89 164.433 385.467 164.706 384.964 164.903C384.461 165.097 383.895 165.193 383.268 165.193ZM390.444 159.422V165H389.019V155.727H390.396V157.176H390.517C390.734 156.705 391.064 156.327 391.507 156.041C391.949 155.751 392.521 155.607 393.221 155.607C393.849 155.607 394.398 155.735 394.869 155.993C395.34 156.246 395.706 156.633 395.968 157.152C396.229 157.667 396.36 158.319 396.36 159.108V165H394.936V159.205C394.936 158.476 394.746 157.909 394.368 157.502C393.99 157.092 393.471 156.886 392.811 156.886C392.356 156.886 391.949 156.985 391.591 157.182C391.237 157.379 390.957 157.667 390.752 158.045C390.547 158.424 390.444 158.883 390.444 159.422ZM400.834 163.31L400.737 163.962C400.669 164.42 400.564 164.911 400.423 165.435C400.286 165.958 400.143 166.451 399.995 166.914C399.846 167.377 399.723 167.745 399.626 168.018H398.54C398.592 167.761 398.66 167.421 398.745 166.998C398.829 166.576 398.914 166.103 398.998 165.58C399.087 165.06 399.159 164.529 399.216 163.986L399.288 163.31H400.834ZM411.512 165.193C410.642 165.193 409.894 164.988 409.266 164.577C408.638 164.167 408.155 163.601 407.817 162.881C407.479 162.161 407.31 161.338 407.31 160.412C407.31 159.47 407.483 158.639 407.829 157.919C408.179 157.194 408.666 156.629 409.29 156.222C409.918 155.812 410.65 155.607 411.488 155.607C412.139 155.607 412.727 155.727 413.25 155.969C413.773 156.21 414.202 156.548 414.536 156.983C414.87 157.418 415.077 157.925 415.158 158.504H413.733C413.625 158.082 413.383 157.707 413.009 157.381C412.639 157.051 412.139 156.886 411.512 156.886C410.956 156.886 410.469 157.031 410.051 157.321C409.636 157.607 409.312 158.011 409.079 158.534C408.849 159.054 408.735 159.663 408.735 160.364C408.735 161.08 408.847 161.704 409.073 162.235C409.302 162.766 409.624 163.179 410.039 163.473C410.457 163.766 410.948 163.913 411.512 163.913C411.882 163.913 412.218 163.849 412.52 163.72C412.822 163.591 413.077 163.406 413.287 163.165C413.496 162.923 413.645 162.634 413.733 162.295H415.158C415.077 162.843 414.878 163.336 414.56 163.775C414.246 164.209 413.83 164.555 413.311 164.813C412.796 165.066 412.196 165.193 411.512 165.193ZM418.41 152.636V165H416.986V152.636H418.41ZM420.765 165V155.727H422.19V165H420.765ZM421.489 154.182C421.212 154.182 420.972 154.087 420.771 153.898C420.574 153.709 420.475 153.482 420.475 153.216C420.475 152.95 420.574 152.723 420.771 152.534C420.972 152.345 421.212 152.25 421.489 152.25C421.767 152.25 422.004 152.345 422.202 152.534C422.403 152.723 422.504 152.95 422.504 153.216C422.504 153.482 422.403 153.709 422.202 153.898C422.004 154.087 421.767 154.182 421.489 154.182ZM428.432 165.193C427.538 165.193 426.768 164.996 426.12 164.602C425.476 164.203 424.979 163.648 424.629 162.935C424.282 162.219 424.109 161.386 424.109 160.436C424.109 159.486 424.282 158.649 424.629 157.925C424.979 157.196 425.466 156.629 426.09 156.222C426.717 155.812 427.45 155.607 428.287 155.607C428.77 155.607 429.247 155.687 429.718 155.848C430.189 156.009 430.617 156.271 431.004 156.633C431.39 156.991 431.698 157.466 431.927 158.058C432.157 158.649 432.271 159.378 432.271 160.243V160.847H425.124V159.615H430.822C430.822 159.092 430.718 158.625 430.509 158.214C430.303 157.804 430.009 157.48 429.627 157.243C429.249 157.005 428.802 156.886 428.287 156.886C427.719 156.886 427.228 157.027 426.814 157.309C426.403 157.587 426.088 157.949 425.866 158.396C425.645 158.842 425.534 159.321 425.534 159.832V160.653C425.534 161.354 425.655 161.947 425.896 162.434C426.142 162.917 426.482 163.286 426.917 163.539C427.351 163.789 427.856 163.913 428.432 163.913C428.806 163.913 429.144 163.861 429.446 163.756C429.752 163.648 430.016 163.487 430.237 163.273C430.458 163.056 430.629 162.786 430.75 162.464L432.126 162.851C431.982 163.318 431.738 163.728 431.396 164.082C431.054 164.433 430.631 164.706 430.128 164.903C429.625 165.097 429.06 165.193 428.432 165.193ZM435.608 159.422V165H434.184V155.727H435.56V157.176H435.681C435.898 156.705 436.228 156.327 436.671 156.041C437.114 155.751 437.685 155.607 438.385 155.607C439.013 155.607 439.562 155.735 440.033 155.993C440.504 156.246 440.87 156.633 441.132 157.152C441.394 157.667 441.524 158.319 441.524 159.108V165H440.1V159.205C440.1 158.476 439.911 157.909 439.532 157.502C439.154 157.092 438.635 156.886 437.975 156.886C437.52 156.886 437.114 156.985 436.755 157.182C436.401 157.379 436.121 157.667 435.916 158.045C435.711 158.424 435.608 158.883 435.608 159.422ZM447.906 155.727V156.935H443.1V155.727H447.906ZM444.501 153.506H445.925V162.344C445.925 162.746 445.984 163.048 446.101 163.249C446.221 163.446 446.374 163.579 446.559 163.648C446.749 163.712 446.948 163.744 447.157 163.744C447.314 163.744 447.443 163.736 447.543 163.72C447.644 163.7 447.724 163.684 447.785 163.672L448.075 164.952C447.978 164.988 447.843 165.024 447.67 165.06C447.497 165.101 447.278 165.121 447.012 165.121C446.61 165.121 446.215 165.034 445.829 164.861C445.447 164.688 445.129 164.424 444.875 164.07C444.626 163.716 444.501 163.269 444.501 162.73V153.506ZM454.774 159.036V160.364H449.365V159.036H454.774ZM457.026 165V155.727H458.402V157.128H458.499C458.668 156.669 458.974 156.297 459.417 156.011C459.859 155.725 460.358 155.582 460.914 155.582C461.018 155.582 461.149 155.584 461.306 155.588C461.463 155.592 461.582 155.598 461.662 155.607V157.055C461.614 157.043 461.503 157.025 461.33 157.001C461.161 156.973 460.982 156.959 460.793 156.959C460.342 156.959 459.94 157.053 459.586 157.243C459.236 157.428 458.958 157.685 458.753 158.015C458.551 158.341 458.451 158.714 458.451 159.132V165H457.026ZM466.702 165.193C465.808 165.193 465.038 164.996 464.39 164.602C463.746 164.203 463.249 163.648 462.898 162.935C462.552 162.219 462.379 161.386 462.379 160.436C462.379 159.486 462.552 158.649 462.898 157.925C463.249 157.196 463.736 156.629 464.359 156.222C464.987 155.812 465.72 155.607 466.557 155.607C467.04 155.607 467.517 155.687 467.988 155.848C468.459 156.009 468.887 156.271 469.273 156.633C469.66 156.991 469.968 157.466 470.197 158.058C470.427 158.649 470.541 159.378 470.541 160.243V160.847H463.394V159.615H469.092C469.092 159.092 468.988 158.625 468.778 158.214C468.573 157.804 468.279 157.48 467.897 157.243C467.519 157.005 467.072 156.886 466.557 156.886C465.989 156.886 465.498 157.027 465.084 157.309C464.673 157.587 464.357 157.949 464.136 158.396C463.915 158.842 463.804 159.321 463.804 159.832V160.653C463.804 161.354 463.925 161.947 464.166 162.434C464.412 162.917 464.752 163.286 465.186 163.539C465.621 163.789 466.126 163.913 466.702 163.913C467.076 163.913 467.414 163.861 467.716 163.756C468.022 163.648 468.285 163.487 468.507 163.273C468.728 163.056 468.899 162.786 469.02 162.464L470.396 162.851C470.251 163.318 470.008 163.728 469.666 164.082C469.324 164.433 468.901 164.706 468.398 164.903C467.895 165.097 467.33 165.193 466.702 165.193ZM473.878 159.422V165H472.454V155.727H473.83V157.176H473.951C474.168 156.705 474.498 156.327 474.941 156.041C475.383 155.751 475.955 155.607 476.655 155.607C477.283 155.607 477.832 155.735 478.303 155.993C478.774 156.246 479.14 156.633 479.402 157.152C479.664 157.667 479.794 158.319 479.794 159.108V165H478.37V159.205C478.37 158.476 478.181 157.909 477.802 157.502C477.424 157.092 476.905 156.886 476.245 156.886C475.79 156.886 475.383 156.985 475.025 157.182C474.671 157.379 474.391 157.667 474.186 158.045C473.981 158.424 473.878 158.883 473.878 159.422ZM485.644 165.193C484.872 165.193 484.189 164.998 483.598 164.608C483.006 164.213 482.543 163.658 482.209 162.941C481.875 162.221 481.708 161.37 481.708 160.388C481.708 159.414 481.875 158.569 482.209 157.852C482.543 157.136 483.008 156.583 483.604 156.192C484.199 155.802 484.888 155.607 485.668 155.607C486.272 155.607 486.749 155.707 487.099 155.908C487.453 156.106 487.723 156.331 487.908 156.585C488.097 156.834 488.244 157.039 488.349 157.2H488.47V152.636H489.894V165H488.518V163.575H488.349C488.244 163.744 488.095 163.958 487.902 164.215C487.709 164.469 487.433 164.696 487.075 164.897C486.717 165.095 486.24 165.193 485.644 165.193ZM485.837 163.913C486.409 163.913 486.892 163.764 487.286 163.467C487.681 163.165 487.981 162.748 488.186 162.217C488.391 161.682 488.494 161.064 488.494 160.364C488.494 159.671 488.393 159.066 488.192 158.547C487.991 158.023 487.693 157.617 487.298 157.327C486.904 157.033 486.417 156.886 485.837 156.886C485.234 156.886 484.731 157.041 484.328 157.351C483.93 157.657 483.63 158.074 483.429 158.601C483.232 159.124 483.133 159.712 483.133 160.364C483.133 161.024 483.234 161.623 483.435 162.163C483.64 162.698 483.942 163.125 484.34 163.442C484.743 163.756 485.242 163.913 485.837 163.913ZM496.334 165.193C495.441 165.193 494.67 164.996 494.022 164.602C493.378 164.203 492.881 163.648 492.531 162.935C492.185 162.219 492.012 161.386 492.012 160.436C492.012 159.486 492.185 158.649 492.531 157.925C492.881 157.196 493.368 156.629 493.992 156.222C494.62 155.812 495.352 155.607 496.189 155.607C496.672 155.607 497.149 155.687 497.62 155.848C498.091 156.009 498.52 156.271 498.906 156.633C499.292 156.991 499.6 157.466 499.83 158.058C500.059 158.649 500.174 159.378 500.174 160.243V160.847H493.026V159.615H498.725C498.725 159.092 498.62 158.625 498.411 158.214C498.206 157.804 497.912 157.48 497.53 157.243C497.151 157.005 496.704 156.886 496.189 156.886C495.622 156.886 495.131 157.027 494.716 157.309C494.306 157.587 493.99 157.949 493.769 158.396C493.547 158.842 493.436 159.321 493.436 159.832V160.653C493.436 161.354 493.557 161.947 493.799 162.434C494.044 162.917 494.384 163.286 494.819 163.539C495.254 163.789 495.759 163.913 496.334 163.913C496.709 163.913 497.047 163.861 497.348 163.756C497.654 163.648 497.918 163.487 498.139 163.273C498.361 163.056 498.532 162.786 498.652 162.464L500.029 162.851C499.884 163.318 499.64 163.728 499.298 164.082C498.956 164.433 498.534 164.706 498.031 164.903C497.528 165.097 496.962 165.193 496.334 165.193ZM502.086 165V155.727H503.462V157.128H503.559C503.728 156.669 504.034 156.297 504.477 156.011C504.919 155.725 505.418 155.582 505.974 155.582C506.078 155.582 506.209 155.584 506.366 155.588C506.523 155.592 506.642 155.598 506.722 155.607V157.055C506.674 157.043 506.563 157.025 506.39 157.001C506.221 156.973 506.042 156.959 505.853 156.959C505.402 156.959 505 157.053 504.646 157.243C504.295 157.428 504.018 157.685 503.813 158.015C503.611 158.341 503.511 158.714 503.511 159.132V165H502.086ZM511.762 165.193C510.868 165.193 510.098 164.996 509.45 164.602C508.806 164.203 508.309 163.648 507.958 162.935C507.612 162.219 507.439 161.386 507.439 160.436C507.439 159.486 507.612 158.649 507.958 157.925C508.309 157.196 508.796 156.629 509.419 156.222C510.047 155.812 510.78 155.607 511.617 155.607C512.1 155.607 512.577 155.687 513.048 155.848C513.518 156.009 513.947 156.271 514.333 156.633C514.72 156.991 515.028 157.466 515.257 158.058C515.487 158.649 515.601 159.378 515.601 160.243V160.847H508.453V159.615H514.152C514.152 159.092 514.048 158.625 513.838 158.214C513.633 157.804 513.339 157.48 512.957 157.243C512.579 157.005 512.132 156.886 511.617 156.886C511.049 156.886 510.558 157.027 510.144 157.309C509.733 157.587 509.417 157.949 509.196 158.396C508.975 158.842 508.864 159.321 508.864 159.832V160.653C508.864 161.354 508.985 161.947 509.226 162.434C509.472 162.917 509.812 163.286 510.246 163.539C510.681 163.789 511.186 163.913 511.762 163.913C512.136 163.913 512.474 163.861 512.776 163.756C513.082 163.648 513.345 163.487 513.567 163.273C513.788 163.056 513.959 162.786 514.08 162.464L515.456 162.851C515.311 163.318 515.068 163.728 514.726 164.082C514.384 164.433 513.961 164.706 513.458 164.903C512.955 165.097 512.39 165.193 511.762 165.193ZM521.015 165.193C520.242 165.193 519.56 164.998 518.968 164.608C518.377 164.213 517.914 163.658 517.58 162.941C517.246 162.221 517.079 161.37 517.079 160.388C517.079 159.414 517.246 158.569 517.58 157.852C517.914 157.136 518.379 156.583 518.974 156.192C519.57 155.802 520.258 155.607 521.039 155.607C521.643 155.607 522.12 155.707 522.47 155.908C522.824 156.106 523.094 156.331 523.279 156.585C523.468 156.834 523.615 157.039 523.719 157.2H523.84V152.636H525.265V165H523.888V163.575H523.719C523.615 163.744 523.466 163.958 523.273 164.215C523.08 164.469 522.804 164.696 522.446 164.897C522.087 165.095 521.611 165.193 521.015 165.193ZM521.208 163.913C521.78 163.913 522.263 163.764 522.657 163.467C523.051 163.165 523.351 162.748 523.556 162.217C523.762 161.682 523.864 161.064 523.864 160.364C523.864 159.671 523.764 159.066 523.562 158.547C523.361 158.023 523.063 157.617 522.669 157.327C522.275 157.033 521.788 156.886 521.208 156.886C520.604 156.886 520.101 157.041 519.699 157.351C519.3 157.657 519.001 158.074 518.799 158.601C518.602 159.124 518.504 159.712 518.504 160.364C518.504 161.024 518.604 161.623 518.805 162.163C519.011 162.698 519.312 163.125 519.711 163.442C520.113 163.756 520.612 163.913 521.208 163.913ZM535.072 165.217C534.484 165.217 533.951 165.107 533.472 164.885C532.993 164.66 532.613 164.336 532.331 163.913C532.05 163.487 531.909 162.972 531.909 162.368C531.909 161.837 532.013 161.406 532.223 161.076C532.432 160.742 532.712 160.48 533.062 160.291C533.412 160.102 533.798 159.961 534.221 159.869C534.647 159.772 535.076 159.696 535.507 159.639C536.07 159.567 536.527 159.512 536.877 159.476C537.231 159.436 537.489 159.37 537.65 159.277C537.815 159.184 537.897 159.023 537.897 158.794V158.746C537.897 158.15 537.734 157.687 537.408 157.357C537.086 157.027 536.597 156.862 535.941 156.862C535.261 156.862 534.728 157.011 534.342 157.309C533.955 157.607 533.684 157.925 533.527 158.263L532.174 157.78C532.416 157.216 532.738 156.778 533.14 156.464C533.547 156.146 533.989 155.924 534.468 155.8C534.951 155.671 535.426 155.607 535.893 155.607C536.191 155.607 536.533 155.643 536.919 155.715C537.31 155.784 537.686 155.926 538.048 156.144C538.414 156.361 538.718 156.689 538.96 157.128C539.201 157.567 539.322 158.154 539.322 158.891V165H537.897V163.744H537.825C537.728 163.946 537.567 164.161 537.342 164.39C537.117 164.62 536.817 164.815 536.442 164.976C536.068 165.137 535.611 165.217 535.072 165.217ZM535.289 163.938C535.853 163.938 536.328 163.827 536.714 163.605C537.104 163.384 537.398 163.098 537.595 162.748C537.797 162.398 537.897 162.03 537.897 161.643V160.339C537.837 160.412 537.704 160.478 537.499 160.539C537.298 160.595 537.064 160.645 536.799 160.69C536.537 160.73 536.281 160.766 536.032 160.798C535.786 160.826 535.587 160.851 535.434 160.871C535.064 160.919 534.718 160.998 534.396 161.106C534.078 161.211 533.82 161.37 533.623 161.583C533.43 161.792 533.333 162.078 533.333 162.44C533.333 162.935 533.516 163.31 533.883 163.563C534.253 163.813 534.722 163.938 535.289 163.938ZM541.667 168.477V155.727H543.044V157.2H543.213C543.318 157.039 543.462 156.834 543.648 156.585C543.837 156.331 544.106 156.106 544.456 155.908C544.811 155.707 545.29 155.607 545.893 155.607C546.674 155.607 547.362 155.802 547.958 156.192C548.554 156.583 549.018 157.136 549.352 157.852C549.686 158.569 549.853 159.414 549.853 160.388C549.853 161.37 549.686 162.221 549.352 162.941C549.018 163.658 548.556 164.213 547.964 164.608C547.372 164.998 546.69 165.193 545.917 165.193C545.322 165.193 544.845 165.095 544.487 164.897C544.128 164.696 543.853 164.469 543.66 164.215C543.466 163.958 543.318 163.744 543.213 163.575H543.092V168.477H541.667ZM543.068 160.364C543.068 161.064 543.171 161.682 543.376 162.217C543.581 162.748 543.881 163.165 544.275 163.467C544.67 163.764 545.153 163.913 545.724 163.913C546.32 163.913 546.817 163.756 547.215 163.442C547.618 163.125 547.92 162.698 548.121 162.163C548.326 161.623 548.429 161.024 548.429 160.364C548.429 159.712 548.328 159.124 548.127 158.601C547.93 158.074 547.63 157.657 547.227 157.351C546.829 157.041 546.328 156.886 545.724 156.886C545.145 156.886 544.658 157.033 544.263 157.327C543.869 157.617 543.571 158.023 543.37 158.547C543.169 159.066 543.068 159.671 543.068 160.364ZM551.772 168.477V155.727H553.148V157.2H553.317C553.422 157.039 553.567 156.834 553.752 156.585C553.941 156.331 554.211 156.106 554.561 155.908C554.915 155.707 555.394 155.607 555.998 155.607C556.778 155.607 557.467 155.802 558.062 156.192C558.658 156.583 559.123 157.136 559.457 157.852C559.791 158.569 559.958 159.414 559.958 160.388C559.958 161.37 559.791 162.221 559.457 162.941C559.123 163.658 558.66 164.213 558.068 164.608C557.477 164.998 556.795 165.193 556.022 165.193C555.426 165.193 554.949 165.095 554.591 164.897C554.233 164.696 553.957 164.469 553.764 164.215C553.571 163.958 553.422 163.744 553.317 163.575H553.196V168.477H551.772ZM553.172 160.364C553.172 161.064 553.275 161.682 553.48 162.217C553.685 162.748 553.985 163.165 554.38 163.467C554.774 163.764 555.257 163.913 555.829 163.913C556.424 163.913 556.921 163.756 557.32 163.442C557.722 163.125 558.024 162.698 558.225 162.163C558.431 161.623 558.533 161.024 558.533 160.364C558.533 159.712 558.433 159.124 558.231 158.601C558.034 158.074 557.734 157.657 557.332 157.351C556.933 157.041 556.432 156.886 555.829 156.886C555.249 156.886 554.762 157.033 554.368 157.327C553.973 157.617 553.675 158.023 553.474 158.547C553.273 159.066 553.172 159.671 553.172 160.364ZM563.301 152.636V165H561.876V152.636H563.301ZM565.655 165V155.727H567.08V165H565.655ZM566.38 154.182C566.102 154.182 565.863 154.087 565.661 153.898C565.464 153.709 565.366 153.482 565.366 153.216C565.366 152.95 565.464 152.723 565.661 152.534C565.863 152.345 566.102 152.25 566.38 152.25C566.657 152.25 566.895 152.345 567.092 152.534C567.293 152.723 567.394 152.95 567.394 153.216C567.394 153.482 567.293 153.709 567.092 153.898C566.895 154.087 566.657 154.182 566.38 154.182ZM573.202 165.193C572.332 165.193 571.584 164.988 570.956 164.577C570.328 164.167 569.845 163.601 569.507 162.881C569.169 162.161 569 161.338 569 160.412C569 159.47 569.173 158.639 569.519 157.919C569.869 157.194 570.356 156.629 570.98 156.222C571.608 155.812 572.34 155.607 573.177 155.607C573.829 155.607 574.417 155.727 574.94 155.969C575.463 156.21 575.892 156.548 576.226 156.983C576.56 157.418 576.767 157.925 576.848 158.504H575.423C575.315 158.082 575.073 157.707 574.699 157.381C574.328 157.051 573.829 156.886 573.202 156.886C572.646 156.886 572.159 157.031 571.741 157.321C571.326 157.607 571.002 158.011 570.769 158.534C570.539 159.054 570.425 159.663 570.425 160.364C570.425 161.08 570.537 161.704 570.763 162.235C570.992 162.766 571.314 163.179 571.729 163.473C572.147 163.766 572.638 163.913 573.202 163.913C573.572 163.913 573.908 163.849 574.21 163.72C574.512 163.591 574.767 163.406 574.976 163.165C575.186 162.923 575.335 162.634 575.423 162.295H576.848C576.767 162.843 576.568 163.336 576.25 163.775C575.936 164.209 575.52 164.555 575.001 164.813C574.485 165.066 573.886 165.193 573.202 165.193ZM581.404 165.217C580.817 165.217 580.283 165.107 579.805 164.885C579.326 164.66 578.945 164.336 578.664 163.913C578.382 163.487 578.241 162.972 578.241 162.368C578.241 161.837 578.346 161.406 578.555 161.076C578.764 160.742 579.044 160.48 579.394 160.291C579.744 160.102 580.131 159.961 580.553 159.869C580.98 159.772 581.408 159.696 581.839 159.639C582.402 159.567 582.859 159.512 583.209 159.476C583.564 159.436 583.821 159.37 583.982 159.277C584.147 159.184 584.23 159.023 584.23 158.794V158.746C584.23 158.15 584.067 157.687 583.741 157.357C583.419 157.027 582.93 156.862 582.274 156.862C581.593 156.862 581.06 157.011 580.674 157.309C580.287 157.607 580.016 157.925 579.859 158.263L578.507 157.78C578.748 157.216 579.07 156.778 579.472 156.464C579.879 156.146 580.322 155.924 580.801 155.8C581.284 155.671 581.758 155.607 582.225 155.607C582.523 155.607 582.865 155.643 583.252 155.715C583.642 155.784 584.018 155.926 584.381 156.144C584.747 156.361 585.051 156.689 585.292 157.128C585.534 157.567 585.654 158.154 585.654 158.891V165H584.23V163.744H584.157C584.061 163.946 583.9 164.161 583.674 164.39C583.449 164.62 583.149 164.815 582.775 164.976C582.4 165.137 581.944 165.217 581.404 165.217ZM581.622 163.938C582.185 163.938 582.66 163.827 583.046 163.605C583.437 163.384 583.731 163.098 583.928 162.748C584.129 162.398 584.23 162.03 584.23 161.643V160.339C584.169 160.412 584.036 160.478 583.831 160.539C583.63 160.595 583.397 160.645 583.131 160.69C582.869 160.73 582.614 160.766 582.364 160.798C582.119 160.826 581.919 160.851 581.767 160.871C581.396 160.919 581.05 160.998 580.728 161.106C580.41 161.211 580.153 161.37 579.955 161.583C579.762 161.792 579.666 162.078 579.666 162.44C579.666 162.935 579.849 163.31 580.215 163.563C580.585 163.813 581.054 163.938 581.622 163.938ZM592.032 155.727V156.935H587.227V155.727H592.032ZM588.628 153.506H590.052V162.344C590.052 162.746 590.111 163.048 590.227 163.249C590.348 163.446 590.501 163.579 590.686 163.648C590.875 163.712 591.075 163.744 591.284 163.744C591.441 163.744 591.57 163.736 591.67 163.72C591.771 163.7 591.851 163.684 591.912 163.672L592.201 164.952C592.105 164.988 591.97 165.024 591.797 165.06C591.624 165.101 591.405 165.121 591.139 165.121C590.736 165.121 590.342 165.034 589.956 164.861C589.573 164.688 589.255 164.424 589.002 164.07C588.752 163.716 588.628 163.269 588.628 162.73V153.506ZM593.92 165V155.727H595.345V165H593.92ZM594.645 154.182C594.367 154.182 594.128 154.087 593.927 153.898C593.729 153.709 593.631 153.482 593.631 153.216C593.631 152.95 593.729 152.723 593.927 152.534C594.128 152.345 594.367 152.25 594.645 152.25C594.923 152.25 595.16 152.345 595.357 152.534C595.559 152.723 595.659 152.95 595.659 153.216C595.659 153.482 595.559 153.709 595.357 153.898C595.16 154.087 594.923 154.182 594.645 154.182ZM601.467 165.193C600.63 165.193 599.895 164.994 599.263 164.596C598.635 164.197 598.144 163.64 597.79 162.923C597.44 162.207 597.265 161.37 597.265 160.412C597.265 159.446 597.44 158.603 597.79 157.882C598.144 157.162 598.635 156.603 599.263 156.204C599.895 155.806 600.63 155.607 601.467 155.607C602.304 155.607 603.036 155.806 603.664 156.204C604.296 156.603 604.787 157.162 605.137 157.882C605.491 158.603 605.668 159.446 605.668 160.412C605.668 161.37 605.491 162.207 605.137 162.923C604.787 163.64 604.296 164.197 603.664 164.596C603.036 164.994 602.304 165.193 601.467 165.193ZM601.467 163.913C602.103 163.913 602.626 163.75 603.036 163.424C603.447 163.098 603.751 162.67 603.948 162.138C604.145 161.607 604.244 161.032 604.244 160.412C604.244 159.792 604.145 159.215 603.948 158.679C603.751 158.144 603.447 157.711 603.036 157.381C602.626 157.051 602.103 156.886 601.467 156.886C600.831 156.886 600.308 157.051 599.897 157.381C599.487 157.711 599.183 158.144 598.986 158.679C598.788 159.215 598.69 159.792 598.69 160.412C598.69 161.032 598.788 161.607 598.986 162.138C599.183 162.67 599.487 163.098 599.897 163.424C600.308 163.75 600.831 163.913 601.467 163.913ZM609.013 159.422V165H607.588V155.727H608.965V157.176H609.085C609.303 156.705 609.633 156.327 610.075 156.041C610.518 155.751 611.09 155.607 611.79 155.607C612.418 155.607 612.967 155.735 613.438 155.993C613.909 156.246 614.275 156.633 614.537 157.152C614.798 157.667 614.929 158.319 614.929 159.108V165H613.504V159.205C613.504 158.476 613.315 157.909 612.937 157.502C612.559 157.092 612.039 156.886 611.379 156.886C610.925 156.886 610.518 156.985 610.16 157.182C609.806 157.379 609.526 157.667 609.321 158.045C609.116 158.424 609.013 158.883 609.013 159.422ZM623.846 157.804L622.566 158.166C622.485 157.953 622.367 157.746 622.21 157.544C622.057 157.339 621.848 157.17 621.582 157.037C621.316 156.904 620.976 156.838 620.562 156.838C619.994 156.838 619.521 156.969 619.143 157.23C618.769 157.488 618.582 157.816 618.582 158.214C618.582 158.569 618.71 158.848 618.968 159.054C619.225 159.259 619.628 159.43 620.175 159.567L621.552 159.905C622.381 160.106 622.999 160.414 623.405 160.828C623.812 161.239 624.015 161.768 624.015 162.416C624.015 162.947 623.862 163.422 623.556 163.841C623.254 164.259 622.832 164.589 622.288 164.831C621.745 165.072 621.113 165.193 620.393 165.193C619.447 165.193 618.664 164.988 618.044 164.577C617.424 164.167 617.032 163.567 616.867 162.778L618.219 162.44C618.348 162.939 618.592 163.314 618.95 163.563C619.312 163.813 619.785 163.938 620.368 163.938C621.033 163.938 621.56 163.797 621.95 163.515C622.345 163.229 622.542 162.887 622.542 162.489C622.542 162.167 622.429 161.897 622.204 161.68C621.978 161.458 621.632 161.293 621.165 161.185L619.62 160.822C618.771 160.621 618.147 160.309 617.748 159.887C617.354 159.46 617.157 158.927 617.157 158.287C617.157 157.764 617.304 157.301 617.598 156.898C617.895 156.496 618.3 156.18 618.811 155.951C619.326 155.721 619.91 155.607 620.562 155.607C621.479 155.607 622.2 155.808 622.723 156.21C623.25 156.613 623.624 157.144 623.846 157.804ZM626.943 165.097C626.645 165.097 626.389 164.99 626.176 164.777C625.963 164.563 625.856 164.308 625.856 164.01C625.856 163.712 625.963 163.457 626.176 163.243C626.389 163.03 626.645 162.923 626.943 162.923C627.241 162.923 627.496 163.03 627.709 163.243C627.923 163.457 628.029 163.712 628.029 164.01C628.029 164.207 627.979 164.388 627.878 164.553C627.782 164.718 627.651 164.851 627.486 164.952C627.325 165.048 627.144 165.097 626.943 165.097Z" fill="#D9A6DA"/>
<path d="M294.14 139C293.673 139 293.277 138.86 292.95 138.58C292.623 138.253 292.46 137.833 292.46 137.32V91.75C292.46 91.2367 292.623 90.8167 292.95 90.49C293.277 90.1633 293.673 90 294.14 90H300.51C301.023 90 301.42 90.1633 301.7 90.49C302.027 90.8167 302.19 91.2367 302.19 91.75V109.81H322.84V91.75C322.84 91.2367 323.003 90.8167 323.33 90.49C323.657 90.1633 324.053 90 324.52 90H330.82C331.333 90 331.753 90.1633 332.08 90.49C332.407 90.8167 332.57 91.2367 332.57 91.75V137.32C332.57 137.787 332.407 138.183 332.08 138.51C331.753 138.837 331.333 139 330.82 139H324.52C324.053 139 323.657 138.837 323.33 138.51C323.003 138.183 322.84 137.787 322.84 137.32V118.56H302.19V137.32C302.19 137.787 302.027 138.183 301.7 138.51C301.42 138.837 301.023 139 300.51 139H294.14ZM358.084 139C357.618 139 357.221 138.837 356.894 138.51C356.568 138.183 356.404 137.787 356.404 137.32V121.5L339.884 92.24C339.838 92.1467 339.791 92.03 339.744 91.89C339.698 91.75 339.674 91.61 339.674 91.47C339.674 91.05 339.814 90.7 340.094 90.42C340.374 90.14 340.701 90 341.074 90H347.304C347.864 90 348.308 90.14 348.634 90.42C349.008 90.7 349.264 91.0033 349.404 91.33L361.304 111.7L373.134 91.33C373.321 91.0033 373.578 90.7 373.904 90.42C374.278 90.14 374.744 90 375.304 90H381.464C381.884 90 382.234 90.14 382.514 90.42C382.794 90.7 382.934 91.05 382.934 91.47C382.934 91.61 382.911 91.75 382.864 91.89C382.864 92.03 382.818 92.1467 382.724 92.24L366.204 121.5V137.32C366.204 137.787 366.041 138.183 365.714 138.51C365.388 138.837 364.968 139 364.454 139H358.084ZM391.689 139C391.222 139 390.825 138.837 390.499 138.51C390.172 138.183 390.009 137.787 390.009 137.32V91.75C390.009 91.2367 390.172 90.8167 390.499 90.49C390.825 90.1633 391.222 90 391.689 90H411.989C415.769 90 418.849 90.5833 421.229 91.75C423.609 92.87 425.359 94.4333 426.479 96.44C427.645 98.4467 428.229 100.78 428.229 103.44C428.229 105.213 427.902 106.777 427.249 108.13C426.642 109.437 425.872 110.51 424.939 111.35C424.052 112.19 423.165 112.843 422.279 113.31C424.099 114.15 425.709 115.55 427.109 117.51C428.509 119.47 429.209 121.803 429.209 124.51C429.209 127.31 428.579 129.807 427.319 132C426.059 134.193 424.192 135.92 421.719 137.18C419.245 138.393 416.189 139 412.549 139H391.689ZM399.739 131.58H411.429C413.949 131.58 415.862 130.903 417.169 129.55C418.475 128.15 419.129 126.47 419.129 124.51C419.129 122.457 418.452 120.753 417.099 119.4C415.792 118.047 413.902 117.37 411.429 117.37H399.739V131.58ZM399.739 110.09H410.729C413.202 110.09 415.045 109.507 416.259 108.34C417.519 107.127 418.149 105.563 418.149 103.65C418.149 101.69 417.519 100.173 416.259 99.1C415.045 97.98 413.202 97.42 410.729 97.42H399.739V110.09ZM439.677 139C439.21 139 438.814 138.837 438.487 138.51C438.16 138.183 437.997 137.787 437.997 137.32V91.75C437.997 91.2367 438.16 90.8167 438.487 90.49C438.814 90.1633 439.21 90 439.677 90H457.807C463.454 90 467.91 91.3067 471.177 93.92C474.444 96.5333 476.077 100.337 476.077 105.33C476.077 108.783 475.214 111.653 473.487 113.94C471.807 116.227 469.544 117.883 466.697 118.91L476.917 136.76C477.057 137.04 477.127 137.297 477.127 137.53C477.127 137.95 476.964 138.3 476.637 138.58C476.357 138.86 476.03 139 475.657 139H469.287C468.494 139 467.887 138.79 467.467 138.37C467.047 137.95 466.72 137.53 466.487 137.11L457.457 120.52H447.727V137.32C447.727 137.787 447.564 138.183 447.237 138.51C446.957 138.837 446.56 139 446.047 139H439.677ZM447.727 112.61H457.597C460.444 112.61 462.567 111.98 463.967 110.72C465.367 109.413 466.067 107.593 466.067 105.26C466.067 102.927 465.367 101.107 463.967 99.8C462.614 98.4467 460.49 97.77 457.597 97.77H447.727V112.61ZM486.777 139C486.31 139 485.913 138.837 485.587 138.51C485.26 138.183 485.097 137.787 485.097 137.32V91.68C485.097 91.2133 485.26 90.8167 485.587 90.49C485.913 90.1633 486.31 90 486.777 90H493.357C493.87 90 494.267 90.1633 494.547 90.49C494.873 90.8167 495.037 91.2133 495.037 91.68V137.32C495.037 137.787 494.873 138.183 494.547 138.51C494.267 138.837 493.87 139 493.357 139H486.777ZM507.695 139C507.228 139 506.831 138.837 506.505 138.51C506.178 138.183 506.015 137.787 506.015 137.32V91.75C506.015 91.2367 506.178 90.8167 506.505 90.49C506.831 90.1633 507.228 90 507.695 90H524.775C529.488 90 533.361 90.7233 536.395 92.17C539.475 93.6167 541.785 95.7633 543.325 98.61C544.911 101.457 545.728 104.933 545.775 109.04C545.868 111.093 545.915 112.913 545.915 114.5C545.915 116.087 545.868 117.883 545.775 119.89C545.681 124.23 544.888 127.823 543.395 130.67C541.901 133.47 539.638 135.57 536.605 136.97C533.618 138.323 529.791 139 525.125 139H507.695ZM515.745 130.95H524.775C527.388 130.95 529.511 130.577 531.145 129.83C532.778 129.083 533.968 127.893 534.715 126.26C535.508 124.58 535.928 122.387 535.975 119.68C536.021 118.28 536.045 117.067 536.045 116.04C536.091 114.967 536.091 113.917 536.045 112.89C536.045 111.817 536.021 110.603 535.975 109.25C535.881 105.423 534.925 102.6 533.105 100.78C531.285 98.96 528.391 98.05 524.425 98.05H515.745V130.95ZM556.913 139C556.447 139 556.05 138.837 555.723 138.51C555.397 138.183 555.233 137.787 555.233 137.32V91.68C555.233 91.2133 555.397 90.8167 555.723 90.49C556.05 90.1633 556.447 90 556.913 90H563.423C563.89 90 564.287 90.1633 564.613 90.49C564.94 90.8167 565.103 91.2133 565.103 91.68V130.67H587.293C587.807 130.67 588.227 130.833 588.553 131.16C588.88 131.487 589.043 131.907 589.043 132.42V137.32C589.043 137.787 588.88 138.183 588.553 138.51C588.227 138.837 587.807 139 587.293 139H556.913ZM603.153 139C602.686 139 602.289 138.837 601.963 138.51C601.636 138.183 601.473 137.787 601.473 137.32V121.5L584.953 92.24C584.906 92.1467 584.859 92.03 584.813 91.89C584.766 91.75 584.743 91.61 584.743 91.47C584.743 91.05 584.883 90.7 585.163 90.42C585.443 90.14 585.769 90 586.143 90H592.373C592.933 90 593.376 90.14 593.703 90.42C594.076 90.7 594.333 91.0033 594.473 91.33L606.373 111.7L618.203 91.33C618.389 91.0033 618.646 90.7 618.973 90.42C619.346 90.14 619.813 90 620.373 90H626.533C626.953 90 627.303 90.14 627.583 90.42C627.863 90.7 628.003 91.05 628.003 91.47C628.003 91.61 627.979 91.75 627.933 91.89C627.933 92.03 627.886 92.1467 627.793 92.24L611.273 121.5V137.32C611.273 137.787 611.109 138.183 610.783 138.51C610.456 138.837 610.036 139 609.523 139H603.153Z" fill="url(#paint3_linear_701_129)"/>
</g>
<defs>
<filter id="filter0_f_701_129" x="87.1733" y="3.17334" width="249.399" height="249.399" filterUnits="userSpaceOnUse" color-interpolation-filters="sRGB">
<feFlood flood-opacity="0" result="BackgroundImageFix"/>
<feBlend mode="normal" in="SourceGraphic" in2="BackgroundImageFix" result="shape"/>
<feGaussianBlur stdDeviation="50" result="effect1_foregroundBlur_701_129"/>
</filter>
<linearGradient id="paint0_linear_701_129" x1="204.728" y1="128" x2="204.728" y2="162.751" gradientUnits="userSpaceOnUse">
<stop stop-color="#E3BFFF" stop-opacity="0.99"/>
<stop offset="1" stop-color="#CC8DFD"/>
</linearGradient>
<linearGradient id="paint1_linear_701_129" x1="217.916" y1="85.8601" x2="217.916" y2="141.867" gradientUnits="userSpaceOnUse">
<stop stop-color="#FF96DD"/>
<stop offset="1" stop-color="#FBB5E4"/>
</linearGradient>
<linearGradient id="paint2_linear_701_129" x1="205.104" y1="115.511" x2="205.104" y2="171.517" gradientUnits="userSpaceOnUse">
<stop stop-color="#E3BFFF"/>
<stop offset="1" stop-color="#CC8DFD"/>
</linearGradient>
<linearGradient id="paint3_linear_701_129" x1="211.55" y1="80.25" x2="643.178" y2="155.187" gradientUnits="userSpaceOnUse">
<stop stop-color="#FA97DD"/>
<stop offset="0.3125" stop-color="#FBB3E3"/>
<stop offset="0.713542" stop-color="#E2BCFF"/>
<stop offset="1" stop-color="#CC8EFC"/>
</linearGradient>
<clipPath id="clip0_701_129">
<rect width="810" height="251" fill="white"/>
</clipPath>
</defs>
</svg>
