<svg width="370" height="370" viewBox="0 0 370 370" fill="none" xmlns="http://www.w3.org/2000/svg">
<g filter="url(#filter0_d_3_25)">
<rect x="60" y="60" width="250" height="250" rx="125" fill="#313131"/>
<path d="M230.295 195.467C231.867 197.03 231.867 199.575 230.295 201.138L172.325 258.803C170.765 260.355 168.243 260.355 166.683 258.803L143.067 235.312C141.495 233.748 141.495 231.204 143.067 229.64L201.037 171.975C202.598 170.423 205.119 170.423 206.679 171.975L230.295 195.467Z" fill="url(#paint0_linear_3_25)"/>
<path d="M222.973 139.581C224.545 141.145 224.545 143.689 222.973 145.253L165.142 202.78C163.582 204.332 161.061 204.332 159.5 202.78L135.884 179.288C134.312 177.724 134.312 175.18 135.884 173.616L164.785 144.868L193.715 116.09C195.276 114.537 197.797 114.537 199.357 116.09L211.18 127.85L222.973 139.581Z" fill="url(#paint1_linear_3_25)"/>
</g>
<defs>
<filter id="filter0_d_3_25" x="0" y="0" width="370" height="370" filterUnits="userSpaceOnUse" color-interpolation-filters="sRGB">
<feFlood flood-opacity="0" result="BackgroundImageFix"/>
<feColorMatrix in="SourceAlpha" type="matrix" values="0 0 0 0 0 0 0 0 0 0 0 0 0 0 0 0 0 0 127 0" result="hardAlpha"/>
<feOffset/>
<feGaussianBlur stdDeviation="30"/>
<feComposite in2="hardAlpha" operator="out"/>
<feColorMatrix type="matrix" values="0 0 0 0 0.0125 0 0 0 0 0.0125 0 0 0 0 0.0125 0 0 0 0.5 0"/>
<feBlend mode="normal" in2="BackgroundImageFix" result="effect1_dropShadow_3_25"/>
<feBlend mode="normal" in="SourceGraphic" in2="effect1_dropShadow_3_25" result="shape"/>
</filter>
<linearGradient id="paint0_linear_3_25" x1="133" y1="163.5" x2="242.341" y2="194.067" gradientUnits="userSpaceOnUse">
<stop stop-color="#FAA7E3"/>
<stop offset="1" stop-color="#FFEAEA"/>
</linearGradient>
<linearGradient id="paint1_linear_3_25" x1="133" y1="163.5" x2="242.341" y2="194.067" gradientUnits="userSpaceOnUse">
<stop stop-color="#FAA7E3"/>
<stop offset="1" stop-color="#FFEAEA"/>
</linearGradient>
</defs>
</svg>
