<svg width="171" height="171" viewBox="0 0 171 171" fill="none" xmlns="http://www.w3.org/2000/svg">
<path d="M131.295 96.4666C132.867 98.0304 132.867 100.575 131.295 102.138L73.325 159.803C71.7646 161.355 69.2435 161.355 67.6831 159.803L44.0672 136.312C42.4952 134.748 42.4952 132.204 44.0672 130.64L102.037 72.9749C103.598 71.4228 106.119 71.4228 107.679 72.9749L131.295 96.4666Z" fill="url(#paint0_linear_101_7)"/>
<path d="M123.973 40.5812C125.545 42.145 125.545 44.6892 123.973 46.2529L66.1422 103.78C64.5818 105.332 62.0606 105.332 60.5003 103.78L36.8844 80.2881C35.3123 78.7243 35.3124 76.1801 36.8844 74.6163L65.7849 45.8678L94.7154 17.0895C96.2757 15.5374 98.7969 15.5374 100.357 17.0895L112.18 28.8502L123.973 40.5812Z" fill="url(#paint1_linear_101_7)"/>
<defs>
<linearGradient id="paint0_linear_101_7" x1="34" y1="64.5" x2="143.341" y2="95.0671" gradientUnits="userSpaceOnUse">
<stop stop-color="#FAA7E3"/>
<stop offset="1" stop-color="#FFEAEA"/>
</linearGradient>
<linearGradient id="paint1_linear_101_7" x1="34" y1="64.5" x2="143.341" y2="95.0671" gradientUnits="userSpaceOnUse">
<stop stop-color="#FAA7E3"/>
<stop offset="1" stop-color="#FFEAEA"/>
</linearGradient>
</defs>
</svg>
